<?xml version="1.0" encoding="utf-8"?>
<svg version="1.1" xmlns:xlink="http://www.w3.org/1999/xlink" width="42px" height="35px" xmlns="http://www.w3.org/2000/svg">
  <defs>
    <mask fill="white" id="clip20">
      <path d="M 16.599659284497445 27.675781250000004  C 16.7427597955707 27.79296875  16.814310051107324 27.942708333333336  16.814310051107324 28.125  C 16.814310051107324 28.28125  16.734809767177744 28.4375  16.575809199318567 28.59375  L 8.96763202725724 34.82421875  C 8.80863145939807 34.94140625  8.625780806360023 35  8.4190800681431 35  C 8.228279386712096 35  8.045428733674049 34.94140625  7.870528109028961 34.82421875  L 0.23850085178875638 28.57421875  C 0 28.365885416666668  -0.05565019875070979 28.138020833333336  0.07155025553662692 27.890625  C 0.19875070982396373 27.630208333333336  0.4372515616127201 27.5  0.7870528109028961 27.5  L 6 27.5  L 6 0.6250000000000017  C 5.366269165247019 0.4427083333333298  5.437819420783645 0.29296874999999944  5.580919931856899 0.1757812499999989  C 5.724020442930153 0.058593749999998335  5.9068710959682 0  6.12947189097104 0  L 10.70868824531516 0  C 10.931289040318003 0  11.114139693356048 0.058593749999998335  11.257240204429301 0.1757812499999989  C 11.400340715502555 0.29296874999999944  11.471890971039182 0.4427083333333298  12 0.6250000000000017  L 12 27.5  L 16.051107325383306 27.5  C 16.273708120386143 27.5  16.45655877342419 27.558593749999996  16.599659284497445 27.675781250000004  Z M 41.78534923339012 30.17578125  C 41.92844974446337 30.292968749999996  42 30.442708333333336  42 30.625  L 42 34.375  C 42 34.557291666666664  41.92844974446337 34.70703125  41.78534923339012 34.82421875  C 41.642248722316864 34.94140625  41.459398069278826 35  41.23679727427598 35  L 21.393526405451446 35  C 21.17092561044861 35  20.98807495741056 34.94140625  20.844974446337307 34.82421875  C 20.701873935264054 34.70703125  20.63032367972743 34.557291666666664  20.63032367972743 34.375  L 20.63032367972743 30.625  C 20.63032367972743 30.442708333333336  20.701873935264054 30.292968749999996  20.844974446337307 30.17578125  C 20.98807495741056 30.05859375  21.17092561044861 30.000000000000004  21.393526405451446 30  L 41.23679727427598 30  C 41.459398069278826 30.000000000000004  41.642248722316864 30.05859375  41.78534923339012 30.17578125  Z M 37.206132879045995 20.175781249999996  C 37.34923339011925 20.292968750000004  37.42078364565588 20.442708333333332  37.42078364565588 20.625  L 37.42078364565588 24.375  C 37.42078364565588 24.557291666666664  37.34923339011925 24.70703125  37.206132879045995 24.824218749999996  C 37.063032367972745 24.941406250000004  36.8801817149347 25  36.65758091993186 25  L 21.393526405451446 25  C 21.17092561044861 25  20.98807495741056 24.941406250000004  20.844974446337307 24.824218749999996  C 20.701873935264054 24.70703125  20.63032367972743 24.557291666666664  20.63032367972743 24.375  L 20.63032367972743 20.625  C 20.63032367972743 20.442708333333332  20.701873935264054 20.292968750000004  20.844974446337307 20.175781249999996  C 20.98807495741056 20.05859375  21.17092561044861 20  21.393526405451446 20  L 36.65758091993186 20  C 36.8801817149347 20  37.063032367972745 20.05859375  37.206132879045995 20.175781249999996  Z M 32.626916524701876 10.175781249999998  C 32.77001703577513 10.292968749999998  32.841567291311755 10.442708333333329  32.841567291311755 10.625000000000002  L 32.841567291311755 14.375  C 32.841567291311755 14.557291666666664  32.77001703577513 14.707031250000002  32.626916524701876 14.824218749999998  C 32.48381601362862 14.941406249999998  32.300965360590574 15.000000000000002  32.078364565587734 15  L 21.393526405451446 15  C 21.17092561044861 15.000000000000002  20.98807495741056 14.941406249999998  20.844974446337307 14.824218749999998  C 20.701873935264054 14.707031250000002  20.63032367972743 14.557291666666664  20.63032367972743 14.375  L 20.63032367972743 10.625000000000002  C 20.63032367972743 10.442708333333329  20.701873935264054 10.292968749999998  20.844974446337307 10.175781249999998  C 20.98807495741056 10.058593750000002  21.17092561044861 10  21.393526405451446 10  L 32.078364565587734 10  C 32.300965360590574 10  32.48381601362862 10.058593750000002  32.626916524701876 10.175781249999998  Z M 28.04770017035775 0.1757812499999989  C 28.190800681431003 0.29296874999999944  28.262350936967632 0.4427083333333298  28.262350936967632 0.6250000000000017  L 28.262350936967632 4.375  C 28.262350936967632 4.557291666666664  28.190800681431003 4.707031249999998  28.04770017035775 4.824218749999999  C 27.904599659284496 4.941406249999999  27.721749006246455 5.000000000000002  27.49914821124361 5.000000000000002  L 21.393526405451446 5.000000000000002  C 21.17092561044861 5.000000000000002  20.98807495741056 4.941406249999999  20.844974446337307 4.824218749999999  C 20.701873935264054 4.707031249999998  20.63032367972743 4.557291666666664  20.63032367972743 4.375  L 20.63032367972743 0.6250000000000017  C 20.63032367972743 0.4427083333333298  20.701873935264054 0.29296874999999944  20.844974446337307 0.1757812499999989  C 20.98807495741056 0.058593749999998335  21.17092561044861 0  21.393526405451446 0  L 27.49914821124361 0  C 27.721749006246455 0  27.904599659284496 0.058593749999998335  28.04770017035775 0.1757812499999989  Z " fill-rule="evenodd" />
    </mask>
  </defs>
  <g transform="matrix(1 0 0 1 -1297 -269 )">
    <path d="M 16.599659284497445 27.675781250000004  C 16.7427597955707 27.79296875  16.814310051107324 27.942708333333336  16.814310051107324 28.125  C 16.814310051107324 28.28125  16.734809767177744 28.4375  16.575809199318567 28.59375  L 8.96763202725724 34.82421875  C 8.80863145939807 34.94140625  8.625780806360023 35  8.4190800681431 35  C 8.228279386712096 35  8.045428733674049 34.94140625  7.870528109028961 34.82421875  L 0.23850085178875638 28.57421875  C 0 28.365885416666668  -0.05565019875070979 28.138020833333336  0.07155025553662692 27.890625  C 0.19875070982396373 27.630208333333336  0.4372515616127201 27.5  0.7870528109028961 27.5  L 6 27.5  L 6 0.6250000000000017  C 5.366269165247019 0.4427083333333298  5.437819420783645 0.29296874999999944  5.580919931856899 0.1757812499999989  C 5.724020442930153 0.058593749999998335  5.9068710959682 0  6.12947189097104 0  L 10.70868824531516 0  C 10.931289040318003 0  11.114139693356048 0.058593749999998335  11.257240204429301 0.1757812499999989  C 11.400340715502555 0.29296874999999944  11.471890971039182 0.4427083333333298  12 0.6250000000000017  L 12 27.5  L 16.051107325383306 27.5  C 16.273708120386143 27.5  16.45655877342419 27.558593749999996  16.599659284497445 27.675781250000004  Z M 41.78534923339012 30.17578125  C 41.92844974446337 30.292968749999996  42 30.442708333333336  42 30.625  L 42 34.375  C 42 34.557291666666664  41.92844974446337 34.70703125  41.78534923339012 34.82421875  C 41.642248722316864 34.94140625  41.459398069278826 35  41.23679727427598 35  L 21.393526405451446 35  C 21.17092561044861 35  20.98807495741056 34.94140625  20.844974446337307 34.82421875  C 20.701873935264054 34.70703125  20.63032367972743 34.557291666666664  20.63032367972743 34.375  L 20.63032367972743 30.625  C 20.63032367972743 30.442708333333336  20.701873935264054 30.292968749999996  20.844974446337307 30.17578125  C 20.98807495741056 30.05859375  21.17092561044861 30.000000000000004  21.393526405451446 30  L 41.23679727427598 30  C 41.459398069278826 30.000000000000004  41.642248722316864 30.05859375  41.78534923339012 30.17578125  Z M 37.206132879045995 20.175781249999996  C 37.34923339011925 20.292968750000004  37.42078364565588 20.442708333333332  37.42078364565588 20.625  L 37.42078364565588 24.375  C 37.42078364565588 24.557291666666664  37.34923339011925 24.70703125  37.206132879045995 24.824218749999996  C 37.063032367972745 24.941406250000004  36.8801817149347 25  36.65758091993186 25  L 21.393526405451446 25  C 21.17092561044861 25  20.98807495741056 24.941406250000004  20.844974446337307 24.824218749999996  C 20.701873935264054 24.70703125  20.63032367972743 24.557291666666664  20.63032367972743 24.375  L 20.63032367972743 20.625  C 20.63032367972743 20.442708333333332  20.701873935264054 20.292968750000004  20.844974446337307 20.175781249999996  C 20.98807495741056 20.05859375  21.17092561044861 20  21.393526405451446 20  L 36.65758091993186 20  C 36.8801817149347 20  37.063032367972745 20.05859375  37.206132879045995 20.175781249999996  Z M 32.626916524701876 10.175781249999998  C 32.77001703577513 10.292968749999998  32.841567291311755 10.442708333333329  32.841567291311755 10.625000000000002  L 32.841567291311755 14.375  C 32.841567291311755 14.557291666666664  32.77001703577513 14.707031250000002  32.626916524701876 14.824218749999998  C 32.48381601362862 14.941406249999998  32.300965360590574 15.000000000000002  32.078364565587734 15  L 21.393526405451446 15  C 21.17092561044861 15.000000000000002  20.98807495741056 14.941406249999998  20.844974446337307 14.824218749999998  C 20.701873935264054 14.707031250000002  20.63032367972743 14.557291666666664  20.63032367972743 14.375  L 20.63032367972743 10.625000000000002  C 20.63032367972743 10.442708333333329  20.701873935264054 10.292968749999998  20.844974446337307 10.175781249999998  C 20.98807495741056 10.058593750000002  21.17092561044861 10  21.393526405451446 10  L 32.078364565587734 10  C 32.300965360590574 10  32.48381601362862 10.058593750000002  32.626916524701876 10.175781249999998  Z M 28.04770017035775 0.1757812499999989  C 28.190800681431003 0.29296874999999944  28.262350936967632 0.4427083333333298  28.262350936967632 0.6250000000000017  L 28.262350936967632 4.375  C 28.262350936967632 4.557291666666664  28.190800681431003 4.707031249999998  28.04770017035775 4.824218749999999  C 27.904599659284496 4.941406249999999  27.721749006246455 5.000000000000002  27.49914821124361 5.000000000000002  L 21.393526405451446 5.000000000000002  C 21.17092561044861 5.000000000000002  20.98807495741056 4.941406249999999  20.844974446337307 4.824218749999999  C 20.701873935264054 4.707031249999998  20.63032367972743 4.557291666666664  20.63032367972743 4.375  L 20.63032367972743 0.6250000000000017  C 20.63032367972743 0.4427083333333298  20.701873935264054 0.29296874999999944  20.844974446337307 0.1757812499999989  C 20.98807495741056 0.058593749999998335  21.17092561044861 0  21.393526405451446 0  L 27.49914821124361 0  C 27.721749006246455 0  27.904599659284496 0.058593749999998335  28.04770017035775 0.1757812499999989  Z " fill-rule="nonzero" fill="#333333" stroke="none" transform="matrix(1 0 0 1 1297 269 )" />
    <path d="M 16.599659284497445 27.675781250000004  C 16.7427597955707 27.79296875  16.814310051107324 27.942708333333336  16.814310051107324 28.125  C 16.814310051107324 28.28125  16.734809767177744 28.4375  16.575809199318567 28.59375  L 8.96763202725724 34.82421875  C 8.80863145939807 34.94140625  8.625780806360023 35  8.4190800681431 35  C 8.228279386712096 35  8.045428733674049 34.94140625  7.870528109028961 34.82421875  L 0.23850085178875638 28.57421875  C 0 28.365885416666668  -0.05565019875070979 28.138020833333336  0.07155025553662692 27.890625  C 0.19875070982396373 27.630208333333336  0.4372515616127201 27.5  0.7870528109028961 27.5  L 6 27.5  L 6 0.6250000000000017  C 5.366269165247019 0.4427083333333298  5.437819420783645 0.29296874999999944  5.580919931856899 0.1757812499999989  C 5.724020442930153 0.058593749999998335  5.9068710959682 0  6.12947189097104 0  L 10.70868824531516 0  C 10.931289040318003 0  11.114139693356048 0.058593749999998335  11.257240204429301 0.1757812499999989  C 11.400340715502555 0.29296874999999944  11.471890971039182 0.4427083333333298  12 0.6250000000000017  L 12 27.5  L 16.051107325383306 27.5  C 16.273708120386143 27.5  16.45655877342419 27.558593749999996  16.599659284497445 27.675781250000004  Z " stroke-width="2" stroke="#000000" fill="none" transform="matrix(1 0 0 1 1297 269 )" mask="url(#clip20)" />
    <path d="M 41.78534923339012 30.17578125  C 41.92844974446337 30.292968749999996  42 30.442708333333336  42 30.625  L 42 34.375  C 42 34.557291666666664  41.92844974446337 34.70703125  41.78534923339012 34.82421875  C 41.642248722316864 34.94140625  41.459398069278826 35  41.23679727427598 35  L 21.393526405451446 35  C 21.17092561044861 35  20.98807495741056 34.94140625  20.844974446337307 34.82421875  C 20.701873935264054 34.70703125  20.63032367972743 34.557291666666664  20.63032367972743 34.375  L 20.63032367972743 30.625  C 20.63032367972743 30.442708333333336  20.701873935264054 30.292968749999996  20.844974446337307 30.17578125  C 20.98807495741056 30.05859375  21.17092561044861 30.000000000000004  21.393526405451446 30  L 41.23679727427598 30  C 41.459398069278826 30.000000000000004  41.642248722316864 30.05859375  41.78534923339012 30.17578125  Z " stroke-width="2" stroke="#000000" fill="none" transform="matrix(1 0 0 1 1297 269 )" mask="url(#clip20)" />
    <path d="M 37.206132879045995 20.175781249999996  C 37.34923339011925 20.292968750000004  37.42078364565588 20.442708333333332  37.42078364565588 20.625  L 37.42078364565588 24.375  C 37.42078364565588 24.557291666666664  37.34923339011925 24.70703125  37.206132879045995 24.824218749999996  C 37.063032367972745 24.941406250000004  36.8801817149347 25  36.65758091993186 25  L 21.393526405451446 25  C 21.17092561044861 25  20.98807495741056 24.941406250000004  20.844974446337307 24.824218749999996  C 20.701873935264054 24.70703125  20.63032367972743 24.557291666666664  20.63032367972743 24.375  L 20.63032367972743 20.625  C 20.63032367972743 20.442708333333332  20.701873935264054 20.292968750000004  20.844974446337307 20.175781249999996  C 20.98807495741056 20.05859375  21.17092561044861 20  21.393526405451446 20  L 36.65758091993186 20  C 36.8801817149347 20  37.063032367972745 20.05859375  37.206132879045995 20.175781249999996  Z " stroke-width="2" stroke="#000000" fill="none" transform="matrix(1 0 0 1 1297 269 )" mask="url(#clip20)" />
    <path d="M 32.626916524701876 10.175781249999998  C 32.77001703577513 10.292968749999998  32.841567291311755 10.442708333333329  32.841567291311755 10.625000000000002  L 32.841567291311755 14.375  C 32.841567291311755 14.557291666666664  32.77001703577513 14.707031250000002  32.626916524701876 14.824218749999998  C 32.48381601362862 14.941406249999998  32.300965360590574 15.000000000000002  32.078364565587734 15  L 21.393526405451446 15  C 21.17092561044861 15.000000000000002  20.98807495741056 14.941406249999998  20.844974446337307 14.824218749999998  C 20.701873935264054 14.707031250000002  20.63032367972743 14.557291666666664  20.63032367972743 14.375  L 20.63032367972743 10.625000000000002  C 20.63032367972743 10.442708333333329  20.701873935264054 10.292968749999998  20.844974446337307 10.175781249999998  C 20.98807495741056 10.058593750000002  21.17092561044861 10  21.393526405451446 10  L 32.078364565587734 10  C 32.300965360590574 10  32.48381601362862 10.058593750000002  32.626916524701876 10.175781249999998  Z " stroke-width="2" stroke="#000000" fill="none" transform="matrix(1 0 0 1 1297 269 )" mask="url(#clip20)" />
    <path d="M 28.04770017035775 0.1757812499999989  C 28.190800681431003 0.29296874999999944  28.262350936967632 0.4427083333333298  28.262350936967632 0.6250000000000017  L 28.262350936967632 4.375  C 28.262350936967632 4.557291666666664  28.190800681431003 4.707031249999998  28.04770017035775 4.824218749999999  C 27.904599659284496 4.941406249999999  27.721749006246455 5.000000000000002  27.49914821124361 5.000000000000002  L 21.393526405451446 5.000000000000002  C 21.17092561044861 5.000000000000002  20.98807495741056 4.941406249999999  20.844974446337307 4.824218749999999  C 20.701873935264054 4.707031249999998  20.63032367972743 4.557291666666664  20.63032367972743 4.375  L 20.63032367972743 0.6250000000000017  C 20.63032367972743 0.4427083333333298  20.701873935264054 0.29296874999999944  20.844974446337307 0.1757812499999989  C 20.98807495741056 0.058593749999998335  21.17092561044861 0  21.393526405451446 0  L 27.49914821124361 0  C 27.721749006246455 0  27.904599659284496 0.058593749999998335  28.04770017035775 0.1757812499999989  Z " stroke-width="2" stroke="#000000" fill="none" transform="matrix(1 0 0 1 1297 269 )" mask="url(#clip20)" />
  </g>
</svg>