<?xml version="1.0" encoding="utf-8"?>
<svg version="1.1" xmlns:xlink="http://www.w3.org/1999/xlink" width="507px" height="48px" viewBox="467 514  507 48" xmlns="http://www.w3.org/2000/svg">
  <path d="M 469 524  A 8 8 0 0 1 477 516 L 964 516  A 8 8 0 0 1 972 524 L 972 552  A 8 8 0 0 1 964 560 L 477 560  A 8 8 0 0 1 469 552 L 469 524  Z " fill-rule="nonzero" fill="#ffffff" stroke="none" fill-opacity="0" />
  <path d="M 468 524  A 9 9 0 0 1 477 515 L 964 515  A 9 9 0 0 1 973 524 L 973 552  A 9 9 0 0 1 964 561 L 477 561  A 9 9 0 0 1 468 552 L 468 524  Z " stroke-width="2" stroke="#ffffff" fill="none" stroke-opacity="0.6" />
</svg>