<?xml version="1.0" encoding="utf-8"?>
<svg version="1.1" xmlns:xlink="http://www.w3.org/1999/xlink" width="241px" height="48px" viewBox="733 372  241 48" xmlns="http://www.w3.org/2000/svg">
  <path d="M 735 382  A 8 8 0 0 1 743 374 L 964 374  A 8 8 0 0 1 972 382 L 972 410  A 8 8 0 0 1 964 418 L 743 418  A 8 8 0 0 1 735 410 L 735 382  Z " fill-rule="nonzero" fill="#ffffff" stroke="none" fill-opacity="0" />
  <path d="M 734 382  A 9 9 0 0 1 743 373 L 964 373  A 9 9 0 0 1 973 382 L 973 410  A 9 9 0 0 1 964 419 L 743 419  A 9 9 0 0 1 734 410 L 734 382  Z " stroke-width="2" stroke="#ffffff" fill="none" stroke-opacity="0.6" />
</svg>