<?xml version="1.0" encoding="utf-8"?>
<svg version="1.1" xmlns:xlink="http://www.w3.org/1999/xlink" width="77px" height="77px" xmlns="http://www.w3.org/2000/svg">
  <g transform="matrix(1 0 0 1 -1154 -304 )">
    <path d="M 1192.5 304  C 1214.06 304  1231 320.94  1231 342.5  C 1231 364.06  1214.06 381  1192.5 381  C 1170.94 381  1154 364.06  1154 342.5  C 1154 320.94  1170.94 304  1192.5 304  Z " fill-rule="nonzero" fill="#ffffff" stroke="none" />
    <path d="M 1192.5 304.5  C 1213.78 304.5  1230.5 321.22  1230.5 342.5  C 1230.5 363.78  1213.78 380.5  1192.5 380.5  C 1171.22 380.5  1154.5 363.78  1154.5 342.5  C 1154.5 321.22  1171.22 304.5  1192.5 304.5  Z " stroke-width="1" stroke="#797979" fill="none" />
  </g>
</svg>