<?xml version="1.0" encoding="utf-8"?>
<svg version="1.1" xmlns:xlink="http://www.w3.org/1999/xlink" width="202px" height="54px" xmlns="http://www.w3.org/2000/svg">
  <defs>
    <linearGradient gradientUnits="userSpaceOnUse" x1="769.7269135802477" y1="636.8286666666673" x2="769.7269135802477" y2="636.8286666666671" id="LinearGradient63">
      <stop id="Stop64" stop-color="#601eaa" stop-opacity="0.5882352941176471" offset="0" />
      <stop id="Stop65" stop-color="#601eaa" stop-opacity="0.6196078431372549" offset="1" />
    </linearGradient>
  </defs>
  <g transform="matrix(1 0 0 1 -619 -612 )">
    <path d="M 620.5 622  A 8.5 8.5 0 0 1 629 613.5 L 811 613.5  A 8.5 8.5 0 0 1 819.5 622 L 819.5 656  A 8.5 8.5 0 0 1 811 664.5 L 629 664.5  A 8.5 8.5 0 0 1 620.5 656 L 620.5 622  Z " fill-rule="nonzero" fill="url(#LinearGradient63)" stroke="none" />
    <path d="M 620 622  A 9 9 0 0 1 629 613 L 811 613  A 9 9 0 0 1 820 622 L 820 656  A 9 9 0 0 1 811 665 L 629 665  A 9 9 0 0 1 620 656 L 620 622  Z " stroke-width="2" stroke="#330a6a" fill="none" />
  </g>
</svg>