<?xml version="1.0" encoding="utf-8"?>
<svg version="1.1" xmlns:xlink="http://www.w3.org/1999/xlink" width="182px" height="36px" xmlns="http://www.w3.org/2000/svg">
  <g transform="matrix(1 0 0 1 -888 -599 )">
    <path d="M 890 609  A 8 8 0 0 1 898 601 L 1060 601  A 8 8 0 0 1 1068 609 L 1068 625  A 8 8 0 0 1 1060 633 L 898 633  A 8 8 0 0 1 890 625 L 890 609  Z " fill-rule="nonzero" fill="#000000" stroke="none" fill-opacity="0.11764705882352941" />
    <path d="M 889 609  A 9 9 0 0 1 898 600 L 1060 600  A 9 9 0 0 1 1069 609 L 1069 625  A 9 9 0 0 1 1060 634 L 898 634  A 9 9 0 0 1 889 625 L 889 609  Z " stroke-width="2" stroke="#5800aa" fill="none" stroke-opacity="0.996078431372549" />
  </g>
</svg>