<?xml version="1.0" encoding="utf-8"?>
<svg version="1.1" xmlns:xlink="http://www.w3.org/1999/xlink" width="40px" height="10px" xmlns="http://www.w3.org/2000/svg">
  <defs>
    <mask fill="white" id="clip19">
      <path d="M 39.76851851851852 4.668400520156046  C 39.92283950617284 4.755093194625054  40.00000000000001 4.854789770264412  40 4.967490247074123  C 40.00000000000001 5.088859991330732  39.92283950617284 5.19289120069354  39.76851851851852 5.279583875162549  L 30.879629629629626 9.88296488946684  C 30.63271604938272 10.004334633723449  30.362654320987655 10.030342436064153  30.069444444444446 9.960988296488946  C 29.776234567901238 9.88296488946684  29.629629629629626 9.757260511486779  29.629629629629626 9.583875162548765  L 29.629629629629626 6.671001300390117  L 0.7407407407407407 6.671001300390117  C 0.5246913580246914 6.671001300390117  0.3472222222222222 6.631989596879064  0.20833333333333331 6.553966189856957  C 0.06944444444444445 6.47594278283485  0 6.376246207195491  0 6.254876462938881  L 0 3.758127438231469  C 0 3.636757693974859  0.06944444444444445 3.5370611183355005  0.20833333333333331 3.4590377113133943  C 0.3472222222222222 3.3810143042912877  0.5246913580246914 3.342002600780234  0.7407407407407407 3.342002600780234  L 29.629629629629626 3.342002600780234  L 29.629629629629626 0.42912873862158696  C 29.629629629629626 0.24707412223667125  29.776234567901238 0.12136974425660974  30.069444444444446 0.05201560468140465  C 30.362654320987655 -0.01733853489380266  30.63271604938272 0.004334633723449555  30.879629629629626 0.11703511053316018  L 39.76851851851852 4.668400520156046  Z " fill-rule="evenodd" />
    </mask>
  </defs>
  <g transform="matrix(1 0 0 1 -773 -1550 )">
    <path d="M 39.76851851851852 4.668400520156046  C 39.92283950617284 4.755093194625054  40.00000000000001 4.854789770264412  40 4.967490247074123  C 40.00000000000001 5.088859991330732  39.92283950617284 5.19289120069354  39.76851851851852 5.279583875162549  L 30.879629629629626 9.88296488946684  C 30.63271604938272 10.004334633723449  30.362654320987655 10.030342436064153  30.069444444444446 9.960988296488946  C 29.776234567901238 9.88296488946684  29.629629629629626 9.757260511486779  29.629629629629626 9.583875162548765  L 29.629629629629626 6.671001300390117  L 0.7407407407407407 6.671001300390117  C 0.5246913580246914 6.671001300390117  0.3472222222222222 6.631989596879064  0.20833333333333331 6.553966189856957  C 0.06944444444444445 6.47594278283485  0 6.376246207195491  0 6.254876462938881  L 0 3.758127438231469  C 0 3.636757693974859  0.06944444444444445 3.5370611183355005  0.20833333333333331 3.4590377113133943  C 0.3472222222222222 3.3810143042912877  0.5246913580246914 3.342002600780234  0.7407407407407407 3.342002600780234  L 29.629629629629626 3.342002600780234  L 29.629629629629626 0.42912873862158696  C 29.629629629629626 0.24707412223667125  29.776234567901238 0.12136974425660974  30.069444444444446 0.05201560468140465  C 30.362654320987655 -0.01733853489380266  30.63271604938272 0.004334633723449555  30.879629629629626 0.11703511053316018  L 39.76851851851852 4.668400520156046  Z " fill-rule="nonzero" fill="#000000" stroke="none" transform="matrix(1 0 0 1 773 1550 )" />
    <path d="M 39.76851851851852 4.668400520156046  C 39.92283950617284 4.755093194625054  40.00000000000001 4.854789770264412  40 4.967490247074123  C 40.00000000000001 5.088859991330732  39.92283950617284 5.19289120069354  39.76851851851852 5.279583875162549  L 30.879629629629626 9.88296488946684  C 30.63271604938272 10.004334633723449  30.362654320987655 10.030342436064153  30.069444444444446 9.960988296488946  C 29.776234567901238 9.88296488946684  29.629629629629626 9.757260511486779  29.629629629629626 9.583875162548765  L 29.629629629629626 6.671001300390117  L 0.7407407407407407 6.671001300390117  C 0.5246913580246914 6.671001300390117  0.3472222222222222 6.631989596879064  0.20833333333333331 6.553966189856957  C 0.06944444444444445 6.47594278283485  0 6.376246207195491  0 6.254876462938881  L 0 3.758127438231469  C 0 3.636757693974859  0.06944444444444445 3.5370611183355005  0.20833333333333331 3.4590377113133943  C 0.3472222222222222 3.3810143042912877  0.5246913580246914 3.342002600780234  0.7407407407407407 3.342002600780234  L 29.629629629629626 3.342002600780234  L 29.629629629629626 0.42912873862158696  C 29.629629629629626 0.24707412223667125  29.776234567901238 0.12136974425660974  30.069444444444446 0.05201560468140465  C 30.362654320987655 -0.01733853489380266  30.63271604938272 0.004334633723449555  30.879629629629626 0.11703511053316018  L 39.76851851851852 4.668400520156046  Z " stroke-width="2" stroke="#330a6a" fill="none" transform="matrix(1 0 0 1 773 1550 )" mask="url(#clip19)" />
  </g>
</svg>