<?xml version="1.0" encoding="utf-8"?>
<svg version="1.1" xmlns:xlink="http://www.w3.org/1999/xlink" width="417px" height="58px" viewBox="519 211  417 58" xmlns="http://www.w3.org/2000/svg">
  <path d="M 521 221  A 8 8 0 0 1 529 213 L 926 213  A 8 8 0 0 1 934 221 L 934 259  A 8 8 0 0 1 926 267 L 529 267  A 8 8 0 0 1 521 259 L 521 221  Z " fill-rule="nonzero" fill="#ffffff" stroke="none" fill-opacity="0" />
  <path d="M 520 221  A 9 9 0 0 1 529 212 L 926 212  A 9 9 0 0 1 935 221 L 935 259  A 9 9 0 0 1 926 268 L 529 268  A 9 9 0 0 1 520 259 L 520 221  Z " stroke-width="2" stroke="#ffffff" fill="none" stroke-opacity="0.6" />
</svg>