<?xml version="1.0" encoding="utf-8"?>
<svg version="1.1" xmlns:xlink="http://www.w3.org/1999/xlink" width="158px" height="156px" xmlns="http://www.w3.org/2000/svg">
  <g transform="matrix(1 0 0 1 -121 -231 )">
    <path d="M 110.38839285714286 137.23995535714286  C 120.08705357142858 132.16183035714286  128.05171130952382 125.27008928571428  134.28236607142858 116.56473214285714  C 132.98921130952382 107.56919642857143  130.41759672619048 100.09709821428571  126.56752232142858 94.1484375  C 122.71744791666667 88.19977678571429  117.2950148809524 84.7611607142857  110.30022321428572 83.83258928571428  C 106.36197916666667 88.12723214285712  101.67429315476191 91.47879464285712  96.23716517857142 93.88727678571428  C 90.80003720238098 96.29575892857143  85.05431547619048 97.5  79 97.5  C 72.94568452380952 97.5  67.19996279761905 96.29575892857143  61.76283482142857 93.88727678571428  C 56.3257068452381 91.47879464285712  51.638020833333336 88.12723214285712  47.69977678571429 83.83258928571428  C 40.70498511904762 84.7611607142857  35.282552083333336 88.19977678571429  31.43247767857143 94.1484375  C 27.58240327380953 100.09709821428571  25.01078869047619 107.56919642857143  23.71763392857143 116.56473214285714  C 29.94828869047619 125.27008928571428  37.91294642857143 132.16183035714286  47.61160714285714 137.23995535714286  C 57.31026785714286 142.31808035714286  67.77306547619048 144.85714285714286  79 144.85714285714286  C 90.22693452380953 144.85714285714286  100.68973214285714 142.31808035714286  110.38839285714286 137.23995535714286  Z M 102.93805803571428 79.34933035714286  C 109.55078125 72.8203125  112.85714285714286 64.94196428571429  112.85714285714286 55.71428571428571  C 112.85714285714286 46.48660714285714  109.55078125 38.60825892857143  102.93805803571428 32.07924107142857  C 96.32533482142858 25.550223214285708  88.34598214285714 22.285714285714292  79 22.285714285714292  C 69.65401785714286 22.285714285714292  61.67466517857143 25.550223214285708  55.06194196428571 32.07924107142857  C 48.44921875 38.60825892857143  45.14285714285714 46.48660714285714  45.14285714285714 55.71428571428571  C 45.14285714285714 64.94196428571429  48.44921875 72.8203125  55.06194196428571 79.34933035714286  C 61.67466517857143 85.87834821428572  69.65401785714286 89.14285714285714  79 89.14285714285714  C 88.34598214285714 89.14285714285714  96.32533482142858 85.87834821428572  102.93805803571428 79.34933035714286  Z M 151.73995535714286 47.70535714285714  C 155.91331845238096 57.3392857142857  158 67.4375  158 78  C 158 88.56249999999999  155.91331845238096 98.64620535714283  151.73995535714286 108.25111607142857  C 147.5665922619048 117.85602678571428  141.96781994047623 126.15513392857143  134.94363839285714 133.1484375  C 127.91945684523812 140.14174107142856  119.52864583333334 145.69866071428572  109.77120535714286 149.81919642857144  C 100.0137648809524 153.93973214285714  89.75669642857142 156  79 156  C 68.30208333333334 156  58.074404761904766 153.93973214285714  48.31696428571429 149.81919642857144  C 38.55952380952381 145.69866071428572  30.154017857142854 140.15625  23.10044642857143 133.19196428571428  C 16.046875 126.22767857142857  10.433407738095239 117.92857142857143  6.260044642857142 108.29464285714286  C 2.0866815476190474 98.66071428571428  0 88.56249999999999  0 78  C 0 67.4375  2.0866815476190474 57.3392857142857  6.260044642857142 47.70535714285714  C 10.433407738095239 38.071428571428555  16.046875 29.77232142857143  23.10044642857143 22.808035714285708  C 30.154017857142854 15.84375  38.55952380952381 10.301339285714281  48.31696428571429 6.180803571428569  C 58.074404761904766 2.0602678571428563  68.30208333333334 0  79 0  C 89.69791666666667 0  99.92559523809526 2.0602678571428563  109.68303571428572 6.180803571428569  C 119.4404761904762 10.301339285714281  127.84598214285714 15.84375  134.89955357142858 22.808035714285708  C 141.95312500000003 29.77232142857143  147.5665922619048 38.071428571428555  151.73995535714286 47.70535714285714  Z " fill-rule="nonzero" fill="#ffffff" stroke="none" fill-opacity="0.6" transform="matrix(1 0 0 1 121 231 )" />
  </g>
</svg>