<?xml version="1.0" encoding="utf-8"?>
<svg version="1.1" xmlns:xlink="http://www.w3.org/1999/xlink" width="43px" height="44px" xmlns="http://www.w3.org/2000/svg">
  <g transform="matrix(1 0 0 1 -1378 -19 )">
    <path d="M 13.149553571428573 1.7433035714285707  C 15.805059523809526 0.5811011904761902  18.588541666666668 0  21.5 0  C 24.411458333333336 0  27.19494047619048 0.5811011904761902  29.85044642857143 1.7433035714285707  C 32.50595238095239 2.905505952380951  34.793526785714285 4.46875  36.713169642857146 6.433035714285712  C 38.63281250000001 8.397321428571429  40.16052827380953 10.738095238095234  41.296316964285715 13.455357142857142  C 42.43210565476191 16.172619047619044  43 19.020833333333332  43 22  C 43 24.96279761904762  42.436104910714285 27.80282738095238  41.308314732142854 30.520089285714285  C 40.18052455357143 33.2373511904762  38.656808035714285 35.578125  36.73716517857143 37.542410714285715  C 34.81752232142857 39.50669642857143  32.52994791666667 41.074032738095234  29.874441964285715 42.24441964285714  C 27.218936011904766 43.41480654761905  24.427455357142854 44  21.5 44  C 18.572544642857142 44  15.78106398809524 43.41889880952381  13.125558035714285 42.25669642857143  C 10.470052083333334 41.09449404761905  8.18647693452381 39.527157738095234  6.2748325892857135 37.5546875  C 4.363188244047619 35.58221726190476  2.8394717261904763 33.24144345238095  1.7036830357142856 30.53236607142857  C 0.5678943452380951 27.823288690476186  0 24.979166666666664  0 22  C 0 19.020833333333332  0.5678943452380951 16.172619047619044  1.7036830357142856 13.455357142857142  C 2.8394717261904763 10.738095238095234  4.3671875 8.397321428571429  6.286830357142858 6.433035714285712  C 8.206473214285714 4.46875  10.49404761904762 2.905505952380951  13.149553571428573 1.7433035714285707  Z M 29.01060267857143 25.142857142857142  C 32.849888392857146 25.142857142857142  35.297433035714285 27.81919642857143  36.353236607142854 33.171875  C 38.73679315476191 29.81622023809524  39.92857142857143 26.0922619047619  39.92857142857143 22  C 39.92857142857143 19.44642857142857  39.440662202380956 17.007440476190474  38.46484375 14.683035714285712  C 37.48902529761905 12.35863095238095  36.1772693452381 10.353422619047615  34.529575892857146 8.667410714285712  C 32.8818824404762 6.98139880952381  30.922247023809526 5.639136904761902  28.650669642857146 4.640625  C 26.379092261904766 3.6421130952380927  23.995535714285715 3.1428571428571415  21.5 3.1428571428571415  C 19.004464285714285 3.1428571428571415  16.62090773809524 3.6421130952380927  14.349330357142858 4.640625  C 12.077752976190478 5.639136904761902  10.118117559523812 6.98139880952381  8.470424107142858 8.667410714285712  C 6.822730654761906 10.353422619047615  5.5109747023809526 12.35863095238095  4.53515625 14.683035714285712  C 3.559337797619048 17.007440476190474  3.071428571428571 19.44642857142857  3.071428571428571 22  C 3.071428571428571 26.0922619047619  4.263206845238096 29.81622023809524  6.646763392857142 33.171875  C 7.7025669642857135 27.81919642857143  10.150111607142858 25.142857142857142  13.989397321428573 25.142857142857142  C 16.085007440476193 27.23809523809524  18.588541666666668 28.285714285714285  21.5 28.285714285714285  C 24.411458333333336 28.285714285714285  26.91499255952381 27.23809523809524  29.01060267857143 25.142857142857142  Z M 28.01478794642857 23.95200892857143  C 29.814453125 22.11049107142857  30.714285714285715 19.888392857142858  30.714285714285715 17.28571428571429  C 30.714285714285715 14.683035714285712  29.814453125 12.4609375  28.01478794642857 10.619419642857142  C 26.215122767857146 8.777901785714288  24.043526785714285 7.8571428571428585  21.5 7.8571428571428585  C 18.956473214285715 7.8571428571428585  16.784877232142858 8.777901785714288  14.985212053571427 10.619419642857142  C 13.185546875 12.4609375  12.285714285714285 14.683035714285712  12.285714285714285 17.28571428571429  C 12.285714285714285 19.888392857142858  13.185546875 22.11049107142857  14.985212053571427 23.95200892857143  C 16.784877232142858 25.793526785714285  18.956473214285715 26.714285714285715  21.5 26.714285714285715  C 24.043526785714285 26.714285714285715  26.215122767857146 25.793526785714285  28.01478794642857 23.95200892857143  Z " fill-rule="nonzero" fill="#ffffff" stroke="none" transform="matrix(1 0 0 1 1378 19 )" />
  </g>
</svg>