<?xml version="1.0" encoding="utf-8"?>
<svg version="1.1" xmlns:xlink="http://www.w3.org/1999/xlink" width="42px" height="42px" xmlns="http://www.w3.org/2000/svg">
  <g transform="matrix(1 0 0 1 -315 -282 )">
    <path d="M 24.25390625 10.74609375  C 24.41796875 10.91015625  24.5 11.11979166666666  24 11.375000000000002  L 24 23.625  C 24.5 23.880208333333332  24.41796875 24.089843749999996  24.25390625 24.253906249999996  C 24.08984375 24.417968749999996  23.880208333333336 24.499999999999996  23.625 24.499999999999996  L 14.875 24.499999999999996  C 14.61979166666667 24.499999999999996  14.41015625 24.417968749999996  14.24609375 24.253906249999996  C 14.08203125 24.089843749999996  14 23.880208333333332  14 23.625  L 14 21.874999999999996  C 14 21.619791666666664  14.08203125 21.41015625  14.24609375 21.24609375  C 14.41015625 21.08203125  14.61979166666667 21  14.875 21  L 21 21  L 21 11.375000000000002  C 21 11.11979166666666  21.08203125 10.91015625  21.24609375 10.74609375  C 21.410156250000004 10.58203125  21.61979166666667 10.5  21.875 10.5  L 23.625 10.5  C 23.880208333333336 10.5  24.08984375 10.58203125  24.25390625 10.74609375  Z M 33.87890625 28.46484375  C 35.209635416666664 26.186197916666664  35.875 23.697916666666668  35.875 21  C 35.875 18.302083333333332  35.209635416666664 15.813802083333332  33.87890625 13.53515625  C 32.548177083333336 11.256510416666663  30.743489583333336 9.451822916666663  28.46484375 8.12109375  C 26.186197916666668 6.790364583333333  23.697916666666668 6.125000000000002  21 6.125000000000002  C 18.302083333333332 6.125000000000002  15.813802083333336 6.790364583333333  13.53515625 8.12109375  C 11.256510416666668 9.451822916666663  9.451822916666668 11.256510416666663  8.12109375 13.53515625  C 6.790364583333334 15.813802083333332  6.125 18.302083333333332  6.125 21  C 6.125 23.697916666666668  6.790364583333334 26.186197916666664  8.12109375 28.46484375  C 9.451822916666668 30.74348958333333  11.256510416666668 32.548177083333336  13.53515625 33.87890625  C 15.813802083333336 35.209635416666664  18.302083333333332 35.875  21 35.875  C 23.697916666666668 35.875  26.186197916666668 35.209635416666664  28.46484375 33.87890625  C 30.743489583333336 32.548177083333336  32.548177083333336 30.74348958333333  33.87890625 28.46484375  Z M 39.18359375 10.458984375  C 41.061197916666664 13.676432291666663  42 17.19010416666666  42 21  C 42 24.809895833333336  41.061197916666664 28.32356770833333  39.18359375 31.541015625  C 37.305989583333336 34.758463541666664  34.758463541666664 37.305989583333336  31.541015625 39.18359375  C 28.323567708333336 41.06119791666667  24.809895833333336 42  21 42  C 17.190104166666668 42  13.676432291666668 41.06119791666667  10.458984375 39.18359375  C 7.241536458333334 37.305989583333336  4.694010416666667 34.758463541666664  2.81640625 31.541015625  C 0.9388020833333333 28.32356770833333  0 24.809895833333336  0 21  C 0 17.19010416666666  0.9388020833333333 13.676432291666663  2.81640625 10.458984375  C 4.694010416666667 7.241536458333333  7.241536458333334 4.6940104166666625  10.458984375 2.8164062499999982  C 13.676432291666668 0.9388020833333297  17.190104166666668 0  21 0  C 24.809895833333336 0  28.323567708333336 0.9388020833333297  31.541015625 2.8164062499999982  C 34.758463541666664 4.6940104166666625  37.305989583333336 7.241536458333333  39.18359375 10.458984375  Z " fill-rule="nonzero" fill="#000000" stroke="none" transform="matrix(1 0 0 1 315 282 )" />
  </g>
</svg>