<?xml version="1.0" encoding="utf-8"?>
<svg version="1.1" xmlns:xlink="http://www.w3.org/1999/xlink" width="341px" height="341px" xmlns="http://www.w3.org/2000/svg">
  <g transform="matrix(1 0 0 1 -358 -269 )">
    <path d="M 528.5 269  C 623.98 269  699 344.02  699 439.5  C 699 534.98  623.98 610  528.5 610  C 433.02 610  358 534.98  358 439.5  C 358 344.02  433.02 269  528.5 269  Z " fill-rule="nonzero" fill="#ffffff" stroke="none" />
    <path d="M 528.5 269.5  C 623.7 269.5  698.5 344.3  698.5 439.5  C 698.5 534.7  623.7 609.5  528.5 609.5  C 433.3 609.5  358.5 534.7  358.5 439.5  C 358.5 344.3  433.3 269.5  528.5 269.5  Z " stroke-width="1" stroke="#601eaa" fill="none" />
  </g>
</svg>