<?xml version="1.0" encoding="utf-8"?>
<svg version="1.1" xmlns:xlink="http://www.w3.org/1999/xlink" width="316px" height="316px" xmlns="http://www.w3.org/2000/svg">
  <g transform="matrix(1 0 0 1 -372 -283 )">
    <path d="M 220.77678571428572 277.99888392857144  C 240.17410714285717 267.71242559523813  256.10342261904765 253.7522321428571  268.56473214285717 236.11830357142856  C 265.97842261904765 217.89657738095238  260.83519345238096 202.76078869047618  253.13504464285717 190.7109375  C 245.43489583333334 178.66108630952382  234.5900297619048 171.6956845238095  220.60044642857144 169.8147321428571  C 212.72395833333334 178.51413690476187  203.34858630952382 185.30319940476187  192.47433035714283 190.1819196428571  C 181.60007440476195 195.06063988095238  170.10863095238096 197.5  158 197.5  C 145.89136904761904 197.5  134.3999255952381 195.06063988095238  123.52566964285714 190.1819196428571  C 112.6514136904762 185.30319940476187  103.27604166666667 178.51413690476187  95.39955357142858 169.8147321428571  C 81.40997023809524 171.6956845238095  70.56510416666667 178.66108630952382  62.86495535714286 190.7109375  C 55.16480654761906 202.76078869047618  50.02157738095238 217.89657738095238  47.43526785714286 236.11830357142856  C 59.89657738095238 253.7522321428571  75.82589285714286 267.71242559523813  95.22321428571428 277.99888392857144  C 114.62053571428572 288.28534226190476  135.54613095238096 293.42857142857144  158 293.42857142857144  C 180.45386904761907 293.42857142857144  201.37946428571428 288.28534226190476  220.77678571428572 277.99888392857144  Z M 205.87611607142856 160.73325892857144  C 219.1015625 147.5078125  225.71428571428572 131.54910714285717  225.71428571428572 112.85714285714285  C 225.71428571428572 94.16517857142856  219.1015625 78.20647321428572  205.87611607142856 64.98102678571428  C 192.65066964285717 51.75558035714284  176.69196428571428 45.14285714285716  158 45.14285714285716  C 139.30803571428572 45.14285714285716  123.34933035714286 51.75558035714284  110.12388392857142 64.98102678571428  C 96.8984375 78.20647321428572  90.28571428571428 94.16517857142856  90.28571428571428 112.85714285714285  C 90.28571428571428 131.54910714285717  96.8984375 147.5078125  110.12388392857142 160.73325892857144  C 123.34933035714286 173.9587053571429  139.30803571428572 180.57142857142856  158 180.57142857142856  C 176.69196428571428 180.57142857142856  192.65066964285717 173.9587053571429  205.87611607142856 160.73325892857144  Z M 303.4799107142857 96.63392857142856  C 311.8266369047619 116.14880952380949  316 136.60416666666666  316 158  C 316 179.39583333333331  311.8266369047619 199.82180059523805  303.4799107142857 219.27790178571428  C 295.1331845238096 238.73400297619048  283.93563988095246 255.54501488095238  269.8872767857143 269.7109375  C 255.83891369047623 283.8768601190476  239.05729166666669 295.1331845238095  219.54241071428572 303.4799107142857  C 200.0275297619048 311.8266369047619  179.51339285714283 316  158 316  C 136.60416666666669 316  116.14880952380953 311.8266369047619  96.63392857142858 303.4799107142857  C 77.11904761904762 295.1331845238095  60.30803571428571 283.90625  46.20089285714286 269.7991071428571  C 32.09375 255.69196428571428  20.866815476190478 238.88095238095238  12.520089285714285 219.36607142857144  C 4.173363095238095 199.85119047619048  0 179.39583333333331  0 158  C 0 136.60416666666666  4.173363095238095 116.14880952380949  12.520089285714285 96.63392857142856  C 20.866815476190478 77.11904761904759  32.09375 60.30803571428572  46.20089285714286 46.20089285714284  C 60.30803571428571 32.09375  77.11904761904762 20.866815476190467  96.63392857142858 12.520089285714281  C 116.14880952380953 4.173363095238093  136.60416666666669 0  158 0  C 179.39583333333334 0  199.8511904761905 4.173363095238093  219.36607142857144 12.520089285714281  C 238.8809523809524 20.866815476190467  255.69196428571428 32.09375  269.79910714285717 46.20089285714284  C 283.90625000000006 60.30803571428572  295.1331845238096 77.11904761904759  303.4799107142857 96.63392857142856  Z " fill-rule="nonzero" fill="#000000" stroke="none" transform="matrix(1 0 0 1 372 283 )" />
  </g>
</svg>