<?xml version="1.0" encoding="utf-8"?>
<svg version="1.1" xmlns:xlink="http://www.w3.org/1999/xlink" width="34px" height="36px" xmlns="http://www.w3.org/2000/svg">
  <g transform="matrix(1 0 0 1 -120 -1087 )">
    <path d="M 14.166666666666668 27.890625  C 14.550347222222223 27.890625  14.882378472222223 27.742187500000004  15.162760416666668 27.4453125  L 28.75390625 13.054687500000002  C 29.034288194444446 12.757812499999996  29.174479166666664 12.406249999999996  29.174479166666664 12.000000000000002  C 29.174479166666664 11.593749999999998  29.034288194444446 11.242187499999998  28.75390625 10.945312500000002  L 26.49609375 8.554687500000002  C 26.215711805555557 8.257812499999996  25.883680555555557 8.109374999999998  25.5 8.109374999999998  C 25.116319444444446 8.109374999999998  24.784288194444446 8.257812499999996  24.50390625 8.554687500000002  L 14.166666666666668 19.500000000000004  L 9.49609375 14.5546875  C 9.215711805555557 14.2578125  8.883680555555557 14.109375000000002  8.5 14.109375000000002  C 8.116319444444445 14.109375000000002  7.784288194444445 14.2578125  7.50390625 14.5546875  L 5.24609375 16.9453125  C 4.965711805555556 17.2421875  4.825520833333334 17.59375  4.825520833333334 18  C 4.825520833333334 18.406249999999996  4.965711805555556 18.757812499999996  5.24609375 19.0546875  L 13.170572916666668 27.4453125  C 13.450954861111112 27.742187500000004  13.782986111111112 27.890625  14.166666666666668 27.890625  Z M 32.129557291666664 1.9804687500000013  C 33.37651909722222 3.300781249999997  34 4.890624999999995  34 6.75  L 34 29.25  C 34 31.109374999999996  33.37651909722222 32.69921875  32.129557291666664 34.01953125  C 30.882595486111114 35.33984375  29.381076388888893 36  27.625 36  L 6.375 36  C 4.618923611111112 36  3.1174045138888893 35.33984375  1.8704427083333335 34.01953125  C 0.6234809027777777 32.69921875  0 31.109374999999996  0 29.25  L 0 6.75  C 0 4.890624999999995  0.6234809027777777 3.300781249999997  1.8704427083333335 1.9804687500000013  C 3.1174045138888893 0.6601562499999978  4.618923611111112 0  6.375 0  L 27.625 0  C 29.381076388888893 0  30.882595486111114 0.6601562499999978  32.129557291666664 1.9804687500000013  Z " fill-rule="nonzero" fill="#ffffff" stroke="none" transform="matrix(1 0 0 1 120 1087 )" />
  </g>
</svg>