<?xml version="1.0" encoding="utf-8"?>
<svg version="1.1" xmlns:xlink="http://www.w3.org/1999/xlink" width="18px" height="18px" viewBox="391 817  18 18" xmlns="http://www.w3.org/2000/svg">
  <path d="M 400 818  C 404.48 818  408 821.52  408 826  C 408 830.48  404.48 834  400 834  C 395.52 834  392 830.48  392 826  C 392 821.52  395.52 818  400 818  Z " fill-rule="nonzero" fill="#6200ee" stroke="none" fill-opacity="0" />
  <path d="M 400 818  C 404.48 818  408 821.52  408 826  C 408 830.48  404.48 834  400 834  C 395.52 834  392 830.48  392 826  C 392 821.52  395.52 818  400 818  Z " stroke-width="2" stroke="#1e98d7" fill="none" />
  <path d="M 400 830.5  C 397.48 830.5  395.5 828.52  395.5 826  C 395.5 823.48  397.48 821.5  400 821.5  C 402.52 821.5  404.5 823.48  404.5 826  C 404.5 828.52  402.52 830.5  400 830.5  " fill-rule="nonzero" fill="#1e98d7" stroke="none" />
</svg>