<?xml version="1.0" encoding="utf-8"?>
<svg version="1.1" xmlns:xlink="http://www.w3.org/1999/xlink" width="85px" height="42px" xmlns="http://www.w3.org/2000/svg">
  <g transform="matrix(1 0 0 1 -798 -370 )">
    <path d="M 800 380  A 8 8 0 0 1 808 372 L 873 372  A 8 8 0 0 1 881 380 L 881 402  A 8 8 0 0 1 873 410 L 808 410  A 8 8 0 0 1 800 402 L 800 380  Z " fill-rule="nonzero" fill="#c2c2c2" stroke="none" />
    <path d="M 799 380  A 9 9 0 0 1 808 371 L 873 371  A 9 9 0 0 1 882 380 L 882 402  A 9 9 0 0 1 873 411 L 808 411  A 9 9 0 0 1 799 402 L 799 380  Z " stroke-width="2" stroke="#330a6a" fill="none" stroke-opacity="0.996078431372549" />
  </g>
</svg>