<?xml version="1.0" encoding="utf-8"?>
<svg version="1.1" xmlns:xlink="http://www.w3.org/1999/xlink" width="125px" height="40px" xmlns="http://www.w3.org/2000/svg">
  <defs>
    <linearGradient gradientUnits="userSpaceOnUse" x1="326.27160493827205" y1="708.391604938272" x2="326.27160493827205" y2="708.3916049382719" id="LinearGradient48">
      <stop id="Stop49" stop-color="#601eaa" stop-opacity="0.5882352941176471" offset="0" />
      <stop id="Stop50" stop-color="#601eaa" stop-opacity="0.6196078431372549" offset="1" />
    </linearGradient>
  </defs>
  <g transform="matrix(1 0 0 1 -233 -690 )">
    <path d="M 234.5 700  A 8.5 8.5 0 0 1 243 691.5 L 348 691.5  A 8.5 8.5 0 0 1 356.5 700 L 356.5 720  A 8.5 8.5 0 0 1 348 728.5 L 243 728.5  A 8.5 8.5 0 0 1 234.5 720 L 234.5 700  Z " fill-rule="nonzero" fill="url(#LinearGradient48)" stroke="none" />
    <path d="M 234 700  A 9 9 0 0 1 243 691 L 348 691  A 9 9 0 0 1 357 700 L 357 720  A 9 9 0 0 1 348 729 L 243 729  A 9 9 0 0 1 234 720 L 234 700  Z " stroke-width="2" stroke="#330a6a" fill="none" />
  </g>
</svg>