<?xml version="1.0" encoding="utf-8"?>
<svg version="1.1" xmlns:xlink="http://www.w3.org/1999/xlink" width="27px" height="10px" xmlns="http://www.w3.org/2000/svg">
  <g transform="matrix(1 0 0 1 -690 -701 )">
    <path d="M 26.859375 3.446033810143043  C 26.953125 3.52405721716515  27 3.623753792804507  27 3.745123537061118  L 27 6.241872561768531  C 27 6.36324230602514  26.953125 6.462938881664499  26.859375 6.540962288686606  C 26.765625 6.618985695708712  26.645833333333336 6.6579973992197665  26.5 6.6579973992197665  L 7 6.6579973992197665  L 7 9.570871261378413  C 7 9.752925877763328  6.901041666666667 9.878630255743388  6.703125 9.947984395318596  C 6.505208333333334 10.0173385348938  6.322916666666668 9.995665366276551  6.15625 9.88296488946684  L 0.15625 5.331599479843954  C 0.05208333333333348 5.244906805374945  0 5.145210229735586  0 5.032509752925877  C 0 4.911140008669267  0.05208333333333348 4.807108799306458  0.15625 4.720416124837451  L 6.15625 0.11703511053316018  C 6.322916666666668 -0.004334633723452885  6.505208333333334 -0.030342436064154654  6.703125 0.039011703511053764  C 6.901041666666667 0.11703511053316018  7 0.24273948851322058  7 0.41612483745123496  L 7 3.3289986996098833  L 26.5 3.3289986996098833  C 26.645833333333336 3.3289986996098833  26.765625 3.3680104031209366  26.859375 3.446033810143043  Z " fill-rule="nonzero" fill="#ffffff" stroke="none" transform="matrix(1 0 0 1 690 701 )" />
  </g>
</svg>