<?xml version="1.0" encoding="utf-8"?>
<svg version="1.1" xmlns:xlink="http://www.w3.org/1999/xlink" width="232px" height="42px" xmlns="http://www.w3.org/2000/svg">
  <g transform="matrix(1 0 0 1 -862 -312 )">
    <path d="M 864 322  A 8 8 0 0 1 872 314 L 1084 314  A 8 8 0 0 1 1092 322 L 1092 344  A 8 8 0 0 1 1084 352 L 872 352  A 8 8 0 0 1 864 344 L 864 322  Z " fill-rule="nonzero" fill="#ffffff" stroke="none" />
    <path d="M 863 322  A 9 9 0 0 1 872 313 L 1084 313  A 9 9 0 0 1 1093 322 L 1093 344  A 9 9 0 0 1 1084 353 L 872 353  A 9 9 0 0 1 863 344 L 863 322  Z " stroke-width="2" stroke="#330a6a" fill="none" stroke-opacity="0.996078431372549" />
  </g>
</svg>