<?xml version="1.0" encoding="utf-8"?>
<svg version="1.1" xmlns:xlink="http://www.w3.org/1999/xlink" width="51px" height="48px" xmlns="http://www.w3.org/2000/svg">
  <defs>
    <linearGradient gradientUnits="userSpaceOnUse" x1="309.94117647058647" y1="-116.7764705882353" x2="309.94117647058647" y2="-107.64529411764707" id="LinearGradient30">
      <stop id="Stop31" stop-color="#568dde" offset="0" />
      <stop id="Stop32" stop-color="#f0db7b" offset="1" />
    </linearGradient>
  </defs>
  <g transform="matrix(1 0 0 1 -284 136 )">
    <path d="M 309.5 -136  C 323.78 -136  335 -125.44  335 -112  C 335 -98.56  323.78 -88  309.5 -88  C 295.22 -88  284 -98.56  284 -112  C 284 -125.44  295.22 -136  309.5 -136  Z " fill-rule="nonzero" fill="url(#LinearGradient30)" stroke="none" />
    <path d="M 309.5 -135.5  C 323.5 -135.5  334.5 -125.16  334.5 -112  C 334.5 -98.84  323.5 -88.5  309.5 -88.5  C 295.5 -88.5  284.5 -98.84  284.5 -112  C 284.5 -125.16  295.5 -135.5  309.5 -135.5  Z " stroke-width="1" stroke="#f2f2f2" fill="none" />
  </g>
</svg>