<?xml version="1.0" encoding="utf-8"?>
<svg version="1.1" xmlns:xlink="http://www.w3.org/1999/xlink" width="30px" height="25px" xmlns="http://www.w3.org/2000/svg">
  <g transform="matrix(1 0 0 1 -662 -500 )">
    <path d="M 28.46938775510204 4.996744791666666  C 28.925570228091242 5.159505208333334  29.2797118847539 5.392795138888887  29.531812725090035 5.696614583333334  C 30.012004801920767 6.315104166666666  30.120048019207683 7.014973958333334  29.85594237695078 7.796223958333334  L 24.903961584633855 22.542317708333336  C 24.67587034813926 23.23676215277778  24.21668667466987 23.819986979166664  23.526410564225692 24.2919921875  C 22.836134453781515 24.763997395833336  22.100840336134453 25  21.320528211284515 25  L 4.699879951980792 25  C 3.7755102040816326 25  2.884153661464586 24.709743923611114  2.025810324129652 24.129231770833336  C 1.167466986794718 23.548719618055554  0.5702280912364946 22.835286458333336  0.234093637454982 21.988932291666664  C -0.05402160864345738 21.261935763888886  -0.0660264105642257 20.572916666666664  0.19807923169267708 19.921875  C 0.19807923169267708 19.87847222222222  0.21608643457382953 19.73198784722222  0.25210084033613445 19.482421875  C 0.28811524609843936 19.232855902777775  0.312124849939976 19.032118055555554  0.32412965186074433 18.880208333333336  C 0.33613445378151263 18.79340277777778  0.31812725090036015 18.6767578125  0.2701080432172869 18.5302734375  C 0.2220888355342137 18.3837890625  0.20408163265306123 18.277994791666668  0.21608643457382953 18.212890625  C 0.24009603841536614 18.09353298611111  0.28811524609843936 17.979600694444443  0.36014405762304924 17.87109375  C 0.43217286914765907 17.762586805555554  0.5312124849939975 17.635091145833332  0.6572629051620649 17.488606770833332  C 0.7833133253301321 17.342122395833332  0.8823529411764706 17.21462673611111  0.9543817527010804 17.106119791666668  C 1.2304921968787517 16.693793402777775  1.5006002400960385 16.197374131944443  1.7647058823529411 15.616861979166668  C 2.028811524609844 15.03634982638889  2.2088835534213684 14.539930555555552  2.304921968787515 14.127604166666668  C 2.3409363745498197 14.019097222222221  2.343937575030012 13.856336805555552  2.313925570228091 13.639322916666668  C 2.283913565426171 13.422309027777779  2.280912364945978 13.270399305555552  2.304921968787515 13.18359375  C 2.3409363745498197 13.06423611111111  2.442977190876351 12.91232638888889  2.611044417767107 12.727864583333332  C 2.779111644657863 12.543402777777779  2.881152460984394 12.418619791666666  2.917166866746699 12.353515625  C 3.1692677070828332 11.962890625  3.4213685474189677 11.463758680555555  3.673469387755102 10.856119791666666  C 3.925570228091236 10.248480902777777  4.075630252100841 9.760199652777777  4.1236494597839135 9.391276041666666  C 4.135654261704682 9.293619791666666  4.120648259303722 9.120008680555555  4.078631452581033 8.870442708333334  C 4.036614645858344 8.62087673611111  4.039615846338536 8.468967013888888  4.087635054021609 8.414713541666666  C 4.135654261704682 8.273654513888888  4.267707082833134 8.108181423611107  4.483793517406963 7.918294270833334  C 4.699879951980792 7.728407118055555  4.831932773109244 7.606336805555555  4.879951980792317 7.552083333333334  C 5.108043217286915 7.269965277777776  5.363145258103242 6.8115234375  5.6452581032412965 6.1767578125  C 5.927370948379352 5.5419921875  6.0924369747899165 5.018446180555555  6.140456182472989 4.606119791666666  C 6.152460984393758 4.519314236111108  6.1344537815126055 4.380967881944442  6.086434573829532 4.191080729166666  C 6.0384153661464595 4.001193576388887  6.026410564225691 3.857421875  6.050420168067227 3.759765625  C 6.074429771908764 3.672960069444442  6.128451380552222 3.575303819444442  6.212484993997599 3.466796875  C 6.2965186074429775 3.3582899305555554  6.4045618247298925 3.233506944444442  6.536614645858343 3.0924479166666656  C 6.668667466986795 2.9513888888888866  6.770708283313326 2.837456597222221  6.842737094837935 2.7506510416666656  C 6.938775510204083 2.6204427083333344  7.037815126050421 2.4549696180555554  7.1398559423769505 2.2542317708333344  C 7.241896758703482 2.0534939236111076  7.331932773109244 1.8636067708333344  7.409963985594238 1.6845703125  C 7.487995198079232 1.5055338541666656  7.58403361344538 1.3102213541666656  7.6980792316926765 1.0986328125  C 7.812124849939977 0.8870442708333343  7.929171668667467 0.713433159722221  8.04921968787515 0.5777994791666657  C 8.169267707082835 0.4421657986111077  8.328331332533013 0.31467013888888673  8.52641056422569 0.1953125  C 8.72448979591837 0.07595486111110772  8.940576230492198 0.013563368055555247  9.174669867947179 0.008138020833334259  C 9.408763505402161 0.0027126736111077188  9.693877551020408 0.03255208333333426  10.03001200480192 0.09765625  L 10.012004801920769 0.146484375  C 10.468187274909964 0.048828125  10.774309723889557 0  10.930372148859544 0  L 24.633853541416567 0  C 25.522208883553425 0  26.206482593037215 0.303819444444442  26.686674669867948 0.9114583333333343  C 27.166866746698684 1.519097222222221  27.274909963985596 2.2243923611111076  27.010804321728692 3.02734375  L 22.076830732292915 17.7734375  C 21.644657863145255 19.064670138888886  21.215486194477794 19.8974609375  20.789315726290518 20.271809895833336  C 20.363145258103245 20.646158854166664  19.591836734693874 20.833333333333336  18.475390156062424 20.833333333333336  L 2.8271308523409364 20.833333333333336  C 2.5030012004801923 20.833333333333336  2.2749099639855945 20.914713541666664  2.142857142857143 21.077473958333336  C 2.0108043217286915 21.251085069444446  2.0048019207683074 21.484375  2.12484993997599 21.77734375  C 2.4129651860744294 22.536892361111114  3.277310924369748 22.916666666666664  4.717887154861945 23  L 21.338535414165666 23  C 21.686674669867948 22.916666666666664  22.02280912364946 22.83257378472222  22.346938775510207 22.664388020833336  C 22.671068427370948 22.496202256944446  22.881152460984396 22.27105034722222  22.97719087635054 21.988932291666664  L 28.37935174069628 5.924479166666666  C 28.46338535414166 5.685763888888887  28.49339735894358 5.376519097222221  28.46938775510204 4.996744791666666  Z M 10.750300120048019 4.6875  L 10.372148859543818 5.729166666666666  C 10.324129651860744 5.870225694444442  10.336134453781513 5.992296006944442  10.408163265306122 6.095377604166666  C 10.480192076830733 6.198459201388887  10.600240096038418 6.25  10.768307322929171 6.25  L 21.71668667466987 6.25  C 21.872749099639858 6.25  22.02581032412965 6.198459201388887  22.175870348139256 6.095377604166666  C 22.32593037214886 5.992296006944442  22.4249699879952 5.870225694444442  22.472989195678274 5.729166666666666  L 22.851140456182474 4.6875  C 22.899159663865547 4.546440972222221  22.88715486194478 4.424370659722221  22.81512605042017 4.3212890625  C 22.743097238895558 4.218207465277776  22.62304921968788 4.166666666666666  22.45498199279712 4.166666666666666  L 11.506602641056423 4.166666666666666  C 11.350540216086435 4.166666666666666  11.19747899159664 4.218207465277776  11.047418967587035 4.3212890625  C 10.897358943577432 4.424370659722221  10.798319327731093 4.546440972222221  10.750300120048019 4.6875  Z M 9.255702280912365 8.854166666666666  L 8.877551020408163 9.895833333333334  C 8.82953181272509 10.03689236111111  8.84153661464586 10.15896267361111  8.913565426170468 10.262044270833334  C 8.985594237695079 10.365125868055555  9.10564225690276 10.416666666666666  9.273709483793517 10.416666666666666  L 20.222088835534212 10.416666666666666  C 20.378151260504204 10.416666666666666  20.531212484994 10.365125868055555  20.6812725090036 10.262044270833334  C 20.83133253301321 10.15896267361111  20.930372148859544 10.03689236111111  20.978391356542616 9.895833333333334  L 21.356542617046816 8.854166666666666  C 21.404561824729893 8.713107638888888  21.39255702280912 8.591037326388888  21.320528211284515 8.487955729166666  C 21.248499399759904 8.384874131944445  21.128451380552224 8.333333333333334  20.960384153661465 8.333333333333334  L 10.012004801920769 8.333333333333334  C 9.855942376950782 8.333333333333334  9.702881152460986 8.384874131944445  9.55282112845138 8.487955729166666  C 9.402761104441778 8.591037326388888  9.30372148859544 8.713107638888888  9.255702280912365 8.854166666666666  Z " fill-rule="nonzero" fill="#000000" stroke="none" transform="matrix(1 0 0 1 662 500 )" />
  </g>
</svg>