<?xml version="1.0" encoding="utf-8"?>
<svg version="1.1" xmlns:xlink="http://www.w3.org/1999/xlink" width="241px" height="61px" xmlns="http://www.w3.org/2000/svg">
  <g transform="matrix(1 0 0 1 -1109 -318 )">
    <path d="M 1111 328  A 8 8 0 0 1 1119 320 L 1340 320  A 8 8 0 0 1 1348 328 L 1348 369  A 8 8 0 0 1 1340 377 L 1119 377  A 8 8 0 0 1 1111 369 L 1111 328  Z " fill-rule="nonzero" fill="#330a6a" stroke="none" />
    <path d="M 1110 328  A 9 9 0 0 1 1119 319 L 1340 319  A 9 9 0 0 1 1349 328 L 1349 369  A 9 9 0 0 1 1340 378 L 1119 378  A 9 9 0 0 1 1110 369 L 1110 328  Z " stroke-width="2" stroke="#000000" fill="none" stroke-opacity="0.9137254901960784" />
  </g>
</svg>