<?xml version="1.0" encoding="utf-8"?>
<svg version="1.1" xmlns:xlink="http://www.w3.org/1999/xlink" width="40px" height="25px" xmlns="http://www.w3.org/2000/svg">
  <defs>
    <mask fill="white" id="clip10">
      <path d="M 3.333333333333333 0  L 36.666666666666664 0  C 37.583333333333336 0  38.36805555555556 0.254991319444442  39.02083333333333 0.7649739583333343  C 39.673611111111114 1.274956597222221  40.00000000000001 1.8880208333333344  40 2.6041666666666656  L 40 22.395833333333336  C 40.00000000000001 23.111979166666664  39.673611111111114 23.72504340277778  39.02083333333333 24.235026041666664  C 38.36805555555556 24.745008680555554  37.583333333333336 25  36.666666666666664 25  L 3.333333333333333 25  C 2.4166666666666665 25  1.6319444444444446 24.745008680555554  0.9791666666666666 24.235026041666664  C 0.3263888888888889 23.72504340277778  0 23.111979166666664  0 22.395833333333336  L 0 2.6041666666666656  C 0 1.8880208333333344  0.3263888888888889 1.274956597222221  0.9791666666666666 0.7649739583333343  C 1.6319444444444446 0.254991319444442  2.4166666666666665 0  3.333333333333333 0  Z M 36.666666666666664 2  L 3.333333333333333 2  C 3.152777777777778 2.0833333333333344  2.996527777777778 2.134874131944442  2.864583333333333 2.2379557291666656  C 2.7326388888888893 2.3410373263888866  2.6666666666666665 2.4631076388888866  2.6666666666666665 2.6041666666666656  L 2.6666666666666665 6.25  L 37.333333333333336 6.25  L 37.333333333333336 2.6041666666666656  C 37.333333333333336 2.4631076388888866  37.267361111111114 2.3410373263888866  37.135416666666664 2.2379557291666656  C 37.00347222222223 2.134874131944442  36.84722222222223 2.0833333333333344  36.666666666666664 2  Z M 3.333333333333333 23  L 36.666666666666664 23  C 36.84722222222223 22.916666666666664  37.00347222222223 22.865125868055554  37.135416666666664 22.762044270833336  C 37.267361111111114 22.658962673611114  37.333333333333336 22.536892361111114  37.333333333333336 22.395833333333336  L 37.333333333333336 12.5  L 2.6666666666666665 12.5  L 2.6666666666666665 22.395833333333336  C 2.6666666666666665 22.536892361111114  2.7326388888888893 22.658962673611114  2.864583333333333 22.762044270833336  C 2.996527777777778 22.865125868055554  3.152777777777778 22.916666666666664  3.333333333333333 23  Z M 10.666666666666666 20.833333333333336  L 5.333333333333333 20.833333333333336  L 5.333333333333333 18.75  L 10.666666666666666 18.75  L 10.666666666666666 20.833333333333336  Z M 21.333333333333332 20.833333333333336  L 13.333333333333332 20.833333333333336  L 13.333333333333332 18.75  L 21.333333333333332 18.75  L 21.333333333333332 20.833333333333336  Z " fill-rule="evenodd" />
    </mask>
  </defs>
  <g transform="matrix(1 0 0 1 -1304 -336 )">
    <path d="M 3.333333333333333 0  L 36.666666666666664 0  C 37.583333333333336 0  38.36805555555556 0.254991319444442  39.02083333333333 0.7649739583333343  C 39.673611111111114 1.274956597222221  40.00000000000001 1.8880208333333344  40 2.6041666666666656  L 40 22.395833333333336  C 40.00000000000001 23.111979166666664  39.673611111111114 23.72504340277778  39.02083333333333 24.235026041666664  C 38.36805555555556 24.745008680555554  37.583333333333336 25  36.666666666666664 25  L 3.333333333333333 25  C 2.4166666666666665 25  1.6319444444444446 24.745008680555554  0.9791666666666666 24.235026041666664  C 0.3263888888888889 23.72504340277778  0 23.111979166666664  0 22.395833333333336  L 0 2.6041666666666656  C 0 1.8880208333333344  0.3263888888888889 1.274956597222221  0.9791666666666666 0.7649739583333343  C 1.6319444444444446 0.254991319444442  2.4166666666666665 0  3.333333333333333 0  Z M 36.666666666666664 2  L 3.333333333333333 2  C 3.152777777777778 2.0833333333333344  2.996527777777778 2.134874131944442  2.864583333333333 2.2379557291666656  C 2.7326388888888893 2.3410373263888866  2.6666666666666665 2.4631076388888866  2.6666666666666665 2.6041666666666656  L 2.6666666666666665 6.25  L 37.333333333333336 6.25  L 37.333333333333336 2.6041666666666656  C 37.333333333333336 2.4631076388888866  37.267361111111114 2.3410373263888866  37.135416666666664 2.2379557291666656  C 37.00347222222223 2.134874131944442  36.84722222222223 2.0833333333333344  36.666666666666664 2  Z M 3.333333333333333 23  L 36.666666666666664 23  C 36.84722222222223 22.916666666666664  37.00347222222223 22.865125868055554  37.135416666666664 22.762044270833336  C 37.267361111111114 22.658962673611114  37.333333333333336 22.536892361111114  37.333333333333336 22.395833333333336  L 37.333333333333336 12.5  L 2.6666666666666665 12.5  L 2.6666666666666665 22.395833333333336  C 2.6666666666666665 22.536892361111114  2.7326388888888893 22.658962673611114  2.864583333333333 22.762044270833336  C 2.996527777777778 22.865125868055554  3.152777777777778 22.916666666666664  3.333333333333333 23  Z M 10.666666666666666 20.833333333333336  L 5.333333333333333 20.833333333333336  L 5.333333333333333 18.75  L 10.666666666666666 18.75  L 10.666666666666666 20.833333333333336  Z M 21.333333333333332 20.833333333333336  L 13.333333333333332 20.833333333333336  L 13.333333333333332 18.75  L 21.333333333333332 18.75  L 21.333333333333332 20.833333333333336  Z " fill-rule="nonzero" fill="#ffffff" stroke="none" fill-opacity="0.6" transform="matrix(1 0 0 1 1304 336 )" />
    <path d="M 3.333333333333333 0  L 36.666666666666664 0  C 37.583333333333336 0  38.36805555555556 0.254991319444442  39.02083333333333 0.7649739583333343  C 39.673611111111114 1.274956597222221  40.00000000000001 1.8880208333333344  40 2.6041666666666656  L 40 22.395833333333336  C 40.00000000000001 23.111979166666664  39.673611111111114 23.72504340277778  39.02083333333333 24.235026041666664  C 38.36805555555556 24.745008680555554  37.583333333333336 25  36.666666666666664 25  L 3.333333333333333 25  C 2.4166666666666665 25  1.6319444444444446 24.745008680555554  0.9791666666666666 24.235026041666664  C 0.3263888888888889 23.72504340277778  0 23.111979166666664  0 22.395833333333336  L 0 2.6041666666666656  C 0 1.8880208333333344  0.3263888888888889 1.274956597222221  0.9791666666666666 0.7649739583333343  C 1.6319444444444446 0.254991319444442  2.4166666666666665 0  3.333333333333333 0  Z " stroke-width="4" stroke="#ffffff" fill="none" stroke-opacity="0.6" transform="matrix(1 0 0 1 1304 336 )" mask="url(#clip10)" />
    <path d="M 36.666666666666664 2  L 3.333333333333333 2  C 3.152777777777778 2.0833333333333344  2.996527777777778 2.134874131944442  2.864583333333333 2.2379557291666656  C 2.7326388888888893 2.3410373263888866  2.6666666666666665 2.4631076388888866  2.6666666666666665 2.6041666666666656  L 2.6666666666666665 6.25  L 37.333333333333336 6.25  L 37.333333333333336 2.6041666666666656  C 37.333333333333336 2.4631076388888866  37.267361111111114 2.3410373263888866  37.135416666666664 2.2379557291666656  C 37.00347222222223 2.134874131944442  36.84722222222223 2.0833333333333344  36.666666666666664 2  Z " stroke-width="4" stroke="#ffffff" fill="none" stroke-opacity="0.6" transform="matrix(1 0 0 1 1304 336 )" mask="url(#clip10)" />
    <path d="M 3.333333333333333 23  L 36.666666666666664 23  C 36.84722222222223 22.916666666666664  37.00347222222223 22.865125868055554  37.135416666666664 22.762044270833336  C 37.267361111111114 22.658962673611114  37.333333333333336 22.536892361111114  37.333333333333336 22.395833333333336  L 37.333333333333336 12.5  L 2.6666666666666665 12.5  L 2.6666666666666665 22.395833333333336  C 2.6666666666666665 22.536892361111114  2.7326388888888893 22.658962673611114  2.864583333333333 22.762044270833336  C 2.996527777777778 22.865125868055554  3.152777777777778 22.916666666666664  3.333333333333333 23  Z " stroke-width="4" stroke="#ffffff" fill="none" stroke-opacity="0.6" transform="matrix(1 0 0 1 1304 336 )" mask="url(#clip10)" />
    <path d="M 10.666666666666666 20.833333333333336  L 5.333333333333333 20.833333333333336  L 5.333333333333333 18.75  L 10.666666666666666 18.75  L 10.666666666666666 20.833333333333336  Z " stroke-width="4" stroke="#ffffff" fill="none" stroke-opacity="0.6" transform="matrix(1 0 0 1 1304 336 )" mask="url(#clip10)" />
    <path d="M 21.333333333333332 20.833333333333336  L 13.333333333333332 20.833333333333336  L 13.333333333333332 18.75  L 21.333333333333332 18.75  L 21.333333333333332 20.833333333333336  Z " stroke-width="4" stroke="#ffffff" fill="none" stroke-opacity="0.6" transform="matrix(1 0 0 1 1304 336 )" mask="url(#clip10)" />
  </g>
</svg>