<?xml version="1.0" encoding="utf-8"?>
<svg version="1.1" xmlns:xlink="http://www.w3.org/1999/xlink" width="29px" height="32px" xmlns="http://www.w3.org/2000/svg">
  <g transform="matrix(1 0 0 1 -524 -432 )">
    <path d="M 2.230769230769231 24.57142857142857  L 2.230769230769231 29.714285714285715  L 7.25 29.714285714285715  L 7.25 24.57142857142857  L 2.230769230769231 24.57142857142857  Z M 8.365384615384615 24.57142857142857  L 8.365384615384615 29.714285714285715  L 13.942307692307693 29.714285714285715  L 13.942307692307693 24.57142857142857  L 8.365384615384615 24.57142857142857  Z M 2.230769230769231 17.714285714285715  L 2.230769230769231 23.42857142857143  L 7.25 23.42857142857143  L 7.25 17.714285714285715  L 2.230769230769231 17.714285714285715  Z M 8.365384615384615 17.714285714285715  L 8.365384615384615 23.42857142857143  L 13.942307692307693 23.42857142857143  L 13.942307692307693 17.714285714285715  L 8.365384615384615 17.714285714285715  Z M 2.230769230769231 11.428571428571427  L 2.230769230769231 16.57142857142857  L 7.25 16.57142857142857  L 7.25 11.428571428571427  L 2.230769230769231 11.428571428571427  Z M 15.057692307692308 24.57142857142857  L 15.057692307692308 29.714285714285715  L 20.634615384615387 29.714285714285715  L 20.634615384615387 24.57142857142857  L 15.057692307692308 24.57142857142857  Z M 8.365384615384615 11.428571428571427  L 8.365384615384615 16.57142857142857  L 13.942307692307693 16.57142857142857  L 13.942307692307693 11.428571428571427  L 8.365384615384615 11.428571428571427  Z M 21.75 24.57142857142857  L 21.75 29.714285714285715  L 26.76923076923077 29.714285714285715  L 26.76923076923077 24.57142857142857  L 21.75 24.57142857142857  Z M 15.057692307692308 17.714285714285715  L 15.057692307692308 23.42857142857143  L 20.634615384615387 23.42857142857143  L 20.634615384615387 17.714285714285715  L 15.057692307692308 17.714285714285715  Z M 8.757512019230768 8.401785714285715  C 8.867888621794872 8.288690476190474  8.923076923076923 8.154761904761902  8.923076923076923 8  L 8.923076923076923 2.8571428571428577  C 8.923076923076923 2.7023809523809526  8.867888621794872 2.5684523809523796  8.757512019230768 2.4553571428571423  C 8.647135416666668 2.3422619047619015  8.516426282051283 2.2857142857142847  8.365384615384615 2.2857142857142847  L 7.25 2.2857142857142847  C 7.098958333333334 2.2857142857142847  6.968249198717949 2.3422619047619015  6.857872596153847 2.4553571428571423  C 6.747495993589743 2.5684523809523796  6.6923076923076925 2.7023809523809526  6.6923076923076925 2.8571428571428577  L 6.6923076923076925 8  C 6.6923076923076925 8.154761904761902  6.747495993589743 8.288690476190474  6.857872596153847 8.401785714285715  C 6.968249198717949 8.514880952380953  7.098958333333334 8.571428571428573  7.25 8.571428571428573  L 8.365384615384615 8.571428571428573  C 8.516426282051283 8.571428571428573  8.647135416666668 8.514880952380953  8.757512019230768 8.401785714285715  Z M 21.75 17.714285714285715  L 21.75 23.42857142857143  L 26.76923076923077 23.42857142857143  L 26.76923076923077 17.714285714285715  L 21.75 17.714285714285715  Z M 15.057692307692308 11.428571428571427  L 15.057692307692308 16.57142857142857  L 20.634615384615387 16.57142857142857  L 20.634615384615387 11.428571428571427  L 15.057692307692308 11.428571428571427  Z M 21.75 11.428571428571427  L 21.75 16.57142857142857  L 26.76923076923077 16.57142857142857  L 26.76923076923077 11.428571428571427  L 21.75 11.428571428571427  Z M 22.142127403846153 8.401785714285715  C 22.25250400641026 8.288690476190474  22.30769230769231 8.154761904761902  22.30769230769231 8  L 22.30769230769231 2.8571428571428577  C 22.30769230769231 2.7023809523809526  22.25250400641026 2.5684523809523796  22.142127403846153 2.4553571428571423  C 22.031750801282055 2.3422619047619015  21.901041666666668 2.2857142857142847  21.75 2.2857142857142847  L 20.634615384615387 2.2857142857142847  C 20.483573717948723 2.2857142857142847  20.352864583333336 2.3422619047619015  20.24248798076923 2.4553571428571423  C 20.13211137820513 2.5684523809523796  20.076923076923077 2.7023809523809526  20.076923076923077 2.8571428571428577  L 20.076923076923077 8  C 20.076923076923077 8.154761904761902  20.13211137820513 8.288690476190474  20.24248798076923 8.401785714285715  C 20.352864583333336 8.514880952380953  20.483573717948723 8.571428571428573  20.634615384615387 8.571428571428573  L 21.75 8.571428571428573  C 21.901041666666668 8.571428571428573  22.031750801282055 8.514880952380953  22.142127403846153 8.401785714285715  Z M 28.337740384615387 5.25  C 28.779246794871796 5.7023809523809526  29 6.238095238095237  29 6.857142857142858  L 29 29.714285714285715  C 29 30.333333333333336  28.779246794871796 30.86904761904762  28.337740384615387 31.321428571428573  C 27.896233974358978 31.773809523809522  27.373397435897438 32  26.76923076923077 32  L 2.230769230769231 32  C 1.6266025641025643 32  1.1037660256410258 31.773809523809522  0.6622596153846153 31.321428571428573  C 0.22075320512820512 30.86904761904762  0 30.333333333333336  0 29.714285714285715  L 0 6.857142857142858  C 0 6.238095238095237  0.22075320512820512 5.7023809523809526  0.6622596153846153 5.25  C 1.1037660256410258 4.797619047619044  1.6266025641025643 4.571428571428573  2.230769230769231 4.571428571428573  L 4.461538461538462 4.571428571428573  L 4.461538461538462 2.8571428571428577  C 4.461538461538462 2.071428571428573  4.73457532051282 1.398809523809522  5.280649038461538 0.8392857142857153  C 5.826722756410257 0.2797619047619051  6.4831730769230775 0  7.25 0  L 8.365384615384615 0  C 9.132211538461538 0  9.788661858974361 0.2797619047619051  10.334735576923077 0.8392857142857153  C 10.880809294871796 1.398809523809522  11.153846153846155 2.071428571428573  11.153846153846155 2.8571428571428577  L 11.153846153846155 4.571428571428573  L 17.846153846153847 4.571428571428573  L 17.846153846153847 2.8571428571428577  C 17.846153846153847 2.071428571428573  18.119190705128204 1.398809523809522  18.665264423076923 0.8392857142857153  C 19.211338141025646 0.2797619047619051  19.867788461538463 0  20.634615384615387 0  L 21.75 0  C 22.516826923076923 0  23.173277243589745 0.2797619047619051  23.719350961538463 0.8392857142857153  C 24.265424679487182 1.398809523809522  24.538461538461537 2.071428571428573  24.538461538461537 2.8571428571428577  L 24.538461538461537 4.571428571428573  L 26.76923076923077 4.571428571428573  C 27.373397435897438 4.571428571428573  27.896233974358978 4.797619047619044  28.337740384615387 5.25  Z " fill-rule="nonzero" fill="#000000" stroke="none" transform="matrix(1 0 0 1 524 432 )" />
  </g>
</svg>