<?xml version="1.0" encoding="utf-8"?>
<svg version="1.1" xmlns:xlink="http://www.w3.org/1999/xlink" width="25px" height="35px" xmlns="http://www.w3.org/2000/svg">
  <g transform="matrix(1 0 0 1 -419 -1328 )">
    <path d="M 24.586173320350536 10.099502487562189  C 25.024342745861734 10.630182421227197  25.097370983446933 11.194029850746267  24.805258033106135 11.791044776119405  C 24.513145082765337 12.404643449419568  24.042518662771826 12.711442786069652  23.393378773125608 12.711442786069652  L 18.719571567672833 12.711442786069652  L 18.719571567672833 34.20398009950249  C 18.719571567672833 34.43615257048093  18.646543330087635 34.62686567164179  18.500486854917234 34.776119402985074  C 18.354430379746837 34.92537313432835  18.167802661473548 35  17.94060370009737 35  L 0.8033106134371958 35  C 0.4625121713729309 35  0.22719896137617657 34.850746268656714  0.09737098344693282 34.55223880597015  C -0.03245699448231095 34.22056384742952  0 33.930348258706466  0.19474196689386564 33.681592039801  L 4.089581304771178 28.905472636815922  C 4.235637779941578 28.723051409618574  4.438493995456021 28.6318407960199  4.698149951314509 28.6318407960199  L 12 28.6318407960199  L 12 12.711442786069652  L 7.814021421616359 12.711442786069652  C 7.164881531970141 12.711442786069652  6.694255111976631 12.404643449419568  6.402142161635832 11.791044776119405  C 6.12625770853619 11.177446102819234  6.19928594612139 10.613598673300164  6.621226874391431 10.099502487562189  L 14.410905550146055 0.5472636815920406  C 14.703018500486856 0.182421227197343  15.100616682895165 0  15.603700097370984 0  C 16.106783511846807 0  16.504381694255112 0.182421227197343  16.79649464459591 0.5472636815920406  L 24.586173320350536 10.099502487562189  Z " fill-rule="nonzero" fill="#000000" stroke="none" transform="matrix(1 0 0 1 419 1328 )" />
  </g>
</svg>