<?xml version="1.0" encoding="utf-8"?>
<svg version="1.1" xmlns:xlink="http://www.w3.org/1999/xlink" width="50px" height="50px" xmlns="http://www.w3.org/2000/svg">
  <g transform="matrix(1 0 0 1 -808 -1202 )">
    <path d="M 32.48697916666667 31.966145833333336  C 34.48350694444445 30.099826388888886  36.84895833333333 29.166666666666664  39.58333333333333 29.166666666666664  C 42.46961805555556 29.166666666666664  44.92730034722223 30.18120659722222  46.95638020833333 32.210286458333336  C 48.98546006944444 34.23936631944444  50 36.69704861111111  50 39.58333333333333  C 50 42.46961805555556  48.98546006944444 44.92730034722223  46.95638020833333 46.95638020833333  C 44.92730034722223 48.98546006944444  42.46961805555556 50  39.58333333333333 50  C 36.697048611111114 50  34.23936631944445 48.98546006944444  32.21028645833333 46.95638020833333  C 30.181206597222225 44.92730034722223  29.166666666666668 42.46961805555556  29.166666666666668 39.58333333333333  C 29.166666666666668 39.32291666666667  29.188368055555557 38.95399305555555  29.231770833333332 38.4765625  L 17.513020833333336 32.6171875  C 15.516493055555555 34.48350694444444  13.151041666666666 35.416666666666664  10.416666666666668 35.416666666666664  C 7.530381944444445 35.416666666666664  5.072699652777779 34.40212673611111  3.043619791666667 32.373046875  C 1.0145399305555554 30.343967013888886  0 27.88628472222222  0 25  C 0 22.113715277777775  1.0145399305555554 19.65603298611111  3.043619791666667 17.626953125  C 5.072699652777779 15.597873263888884  7.530381944444445 14.583333333333332  10.416666666666668 14.583333333333332  C 13.151041666666666 14.583333333333332  15.516493055555555 15.516493055555552  17.513020833333336 17.3828125  L 29.231770833333332 11.5234375  C 29.188368055555557 11.046006944444443  29.166666666666668 10.677083333333332  29.166666666666668 10.416666666666668  C 29.166666666666668 7.530381944444442  30.181206597222225 5.072699652777773  32.21028645833333 3.0436197916666687  C 34.23936631944445 1.0145399305555525  36.697048611111114 0  39.58333333333333 0  C 42.46961805555556 0  44.92730034722223 1.0145399305555525  46.95638020833333 3.0436197916666687  C 48.98546006944444 5.072699652777773  50 7.530381944444442  50 10.416666666666668  C 50 13.302951388888884  48.98546006944444 15.760633680555552  46.95638020833333 17.789713541666668  C 44.92730034722223 19.81879340277778  42.46961805555556 20.833333333333332  39.58333333333333 20.833333333333332  C 36.84895833333333 20.833333333333332  34.48350694444445 19.90017361111111  32.48697916666667 18.033854166666668  L 20.768229166666664 23.893229166666668  C 20.811631944444446 24.37065972222222  20.833333333333336 24.739583333333332  20.833333333333336 25  C 20.833333333333336 25.260416666666664  20.811631944444446 25.62934027777778  20.768229166666664 26.106770833333336  L 32.48697916666667 31.966145833333336  Z " fill-rule="nonzero" fill="#000000" stroke="none" transform="matrix(1 0 0 1 808 1202 )" />
  </g>
</svg>