<?xml version="1.0" encoding="utf-8"?>
<svg version="1.1" xmlns:xlink="http://www.w3.org/1999/xlink" width="92px" height="92px" xmlns="http://www.w3.org/2000/svg">
  <g transform="matrix(1 0 0 1 -297 -1047 )">
    <path d="M 343 1048  C 368.2 1048  388 1067.8  388 1093  C 388 1118.2  368.2 1138  343 1138  C 317.8 1138  298 1118.2  298 1093  C 298 1067.8  317.8 1048  343 1048  Z " fill-rule="nonzero" fill="#d7b3e4" stroke="none" />
    <path d="M 343 1048  C 368.2 1048  388 1067.8  388 1093  C 388 1118.2  368.2 1138  343 1138  C 317.8 1138  298 1118.2  298 1093  C 298 1067.8  317.8 1048  343 1048  Z " stroke-width="2" stroke="#330a6a" fill="none" />
  </g>
</svg>