<?xml version="1.0" encoding="utf-8"?>
<svg version="1.1" xmlns:xlink="http://www.w3.org/1999/xlink" width="241px" height="48px" viewBox="467 372  241 48" xmlns="http://www.w3.org/2000/svg">
  <path d="M 469 382  A 8 8 0 0 1 477 374 L 698 374  A 8 8 0 0 1 706 382 L 706 410  A 8 8 0 0 1 698 418 L 477 418  A 8 8 0 0 1 469 410 L 469 382  Z " fill-rule="nonzero" fill="#f0f0f0" stroke="none" />
  <path d="M 468 382  A 9 9 0 0 1 477 373 L 698 373  A 9 9 0 0 1 707 382 L 707 410  A 9 9 0 0 1 698 419 L 477 419  A 9 9 0 0 1 468 410 L 468 382  Z " stroke-width="2" stroke="#ffffff" fill="none" stroke-opacity="0.6" />
</svg>