<?xml version="1.0" encoding="utf-8"?>
<svg version="1.1" xmlns:xlink="http://www.w3.org/1999/xlink" width="145px" height="145px" xmlns="http://www.w3.org/2000/svg">
  <g transform="matrix(1 0 0 1 -467 -173 )">
    <path d="M 101.30580357142857 127.56277901785715  C 110.20647321428572 122.84272693452382  117.51581101190479 116.43694196428571  123.23381696428572 108.34542410714285  C 122.04706101190479 99.98418898809524  119.6870349702381 93.03896949404762  116.15373883928572 87.509765625  C 112.62044270833334 81.98056175595238  107.64415922619048 78.78441220238093  101.22488839285715 77.92131696428571  C 97.61067708333334 81.91313244047618  93.30868675595238 85.02836681547618  88.31891741071428 87.26702008928571  C 83.3291480654762 89.50567336309524  78.0561755952381 90.625  72.5 90.625  C 66.9438244047619 90.625  61.67085193452382 89.50567336309524  56.681082589285715 87.26702008928571  C 51.69131324404763 85.02836681547618  47.38932291666667 81.91313244047618  43.77511160714286 77.92131696428571  C 37.35584077380952 78.78441220238093  32.37955729166667 81.98056175595238  28.84626116071429 87.509765625  C 25.31296502976191 93.03896949404762  22.95293898809524 99.98418898809524  21.76618303571429 108.34542410714285  C 27.48418898809524 116.43694196428571  34.793526785714285 122.84272693452382  43.69419642857142 127.56277901785715  C 52.59486607142858 132.28283110119048  62.1968005952381 134.64285714285714  72.5 134.64285714285714  C 82.80319940476191 134.64285714285714  92.40513392857143 132.28283110119048  101.30580357142857 127.56277901785715  Z M 94.46847098214285 73.75418526785715  C 100.537109375 67.685546875  103.57142857142857 60.36272321428572  103.57142857142857 51.78571428571428  C 103.57142857142857 43.208705357142854  100.537109375 35.88588169642858  94.46847098214285 29.817243303571427  C 88.39983258928572 23.748604910714278  81.07700892857143 20.714285714285722  72.5 20.714285714285722  C 63.92299107142858 20.714285714285722  56.600167410714285 23.748604910714278  50.53152901785714 29.817243303571427  C 44.462890625 35.88588169642858  41.42857142857142 43.208705357142854  41.42857142857142 51.78571428571428  C 41.42857142857142 60.36272321428572  44.462890625 67.685546875  50.53152901785714 73.75418526785715  C 56.600167410714285 79.82282366071429  63.92299107142858 82.85714285714285  72.5 82.85714285714285  C 81.07700892857143 82.85714285714285  88.39983258928572 79.82282366071429  94.46847098214285 73.75418526785715  Z M 139.25502232142858 44.341517857142854  C 143.0850074404762 53.29613095238094  145 62.682291666666664  145 72.5  C 145 82.31770833333333  143.0850074404762 91.6903831845238  139.25502232142858 100.61802455357143  C 135.42503720238096 109.54566592261904  130.28692336309527 117.25957961309524  123.84068080357143 123.759765625  C 117.39443824404763 130.25995163690476  109.69401041666667 135.42503720238096  100.73939732142857 139.25502232142858  C 91.78478422619048 143.0850074404762  82.37165178571428 145  72.5 145  C 62.68229166666667 145  53.296130952380956 143.0850074404762  44.34151785714286 139.25502232142858  C 35.386904761904766 135.42503720238096  27.67299107142857 130.2734375  21.19977678571429 123.80022321428571  C 14.7265625 117.32700892857143  9.574962797619047 109.61309523809524  5.744977678571428 100.65848214285715  C 1.9149925595238093 91.70386904761904  0 82.31770833333333  0 72.5  C 0 62.682291666666664  1.9149925595238093 53.29613095238094  5.744977678571428 44.341517857142854  C 9.574962797619047 35.38690476190475  14.7265625 27.672991071428573  21.19977678571429 21.199776785714278  C 27.67299107142857 14.7265625  35.386904761904766 9.574962797619044  44.34151785714286 5.744977678571426  C 53.296130952380956 1.9149925595238089  62.68229166666667 0  72.5 0  C 82.31770833333334 0  91.70386904761907 1.9149925595238089  100.65848214285715 5.744977678571426  C 109.61309523809526 9.574962797619044  117.32700892857143 14.7265625  123.80022321428572 21.199776785714278  C 130.27343750000003 27.672991071428573  135.42503720238096 35.38690476190475  139.25502232142858 44.341517857142854  Z " fill-rule="nonzero" fill="#ffffff" stroke="none" transform="matrix(1 0 0 1 467 173 )" />
  </g>
</svg>