<?xml version="1.0" encoding="utf-8"?>
<svg version="1.1" xmlns:xlink="http://www.w3.org/1999/xlink" width="336px" height="48px" viewBox="638 173  336 48" xmlns="http://www.w3.org/2000/svg">
  <path d="M 640 183  A 8 8 0 0 1 648 175 L 964 175  A 8 8 0 0 1 972 183 L 972 211  A 8 8 0 0 1 964 219 L 648 219  A 8 8 0 0 1 640 211 L 640 183  Z " fill-rule="nonzero" fill="#ffffff" stroke="none" fill-opacity="0" />
  <path d="M 639 183  A 9 9 0 0 1 648 174 L 964 174  A 9 9 0 0 1 973 183 L 973 211  A 9 9 0 0 1 964 220 L 648 220  A 9 9 0 0 1 639 211 L 639 183  Z " stroke-width="2" stroke="#ffffff" fill="none" stroke-opacity="0.6" />
</svg>