<?xml version="1.0" encoding="utf-8"?>
<svg version="1.1" xmlns:xlink="http://www.w3.org/1999/xlink" width="38px" height="29px" xmlns="http://www.w3.org/2000/svg">
  <g transform="matrix(1 0 0 1 -1367 -25 )">
    <path d="M 13.747596153846153 24.509943181818183  C 14.326121794871797 25.03172348484848  14.615384615384617 25.64962121212121  14.615384615384617 26.363636363636363  C 14.615384615384617 27.07765151515152  14.326121794871797 27.695549242424242  13.747596153846153 28.217329545454547  C 13.169070512820515 28.739109848484848  12.483974358974361 29  11.692307692307693 29  C 10.900641025641027 29  10.215544871794874 28.739109848484848  9.63701923076923 28.217329545454547  C 9.05849358974359 27.695549242424242  8.76923076923077 27.07765151515152  8.76923076923077 26.363636363636363  C 8.76923076923077 25.64962121212121  9.05849358974359 25.03172348484848  9.63701923076923 24.509943181818183  C 10.215544871794874 23.988162878787882  10.900641025641027 23.727272727272727  11.692307692307693 23.727272727272727  C 12.483974358974361 23.727272727272727  13.169070512820515 23.988162878787882  13.747596153846153 24.509943181818183  Z M 34.20913461538461 24.509943181818183  C 34.787660256410255 25.03172348484848  35.07692307692308 25.64962121212121  35.07692307692308 26.363636363636363  C 35.07692307692308 27.07765151515152  34.787660256410255 27.695549242424242  34.20913461538461 28.217329545454547  C 33.63060897435898 28.739109848484848  32.945512820512825 29  32.15384615384615 29  C 31.36217948717949 29  30.677083333333336 28.739109848484848  30.098557692307693 28.217329545454547  C 29.520032051282055 27.695549242424242  29.230769230769234 27.07765151515152  29.230769230769234 26.363636363636363  C 29.230769230769234 25.64962121212121  29.520032051282055 25.03172348484848  30.098557692307693 24.509943181818183  C 30.677083333333336 23.988162878787882  31.36217948717949 23.727272727272727  32.15384615384615 23.727272727272727  C 32.945512820512825 23.727272727272727  33.63060897435898 23.988162878787882  34.20913461538461 24.509943181818183  Z M 37.56610576923077 3.027698863636363  C 37.85536858974359 3.288589015151512  38 3.597537878787875  38 3.954545454545454  L 38 14.5  C 38 14.829545454545455  37.87439903846154 15.121330492424244  37.62319711538461 15.375355113636367  C 37.37199519230769 15.62937973484848  37.06370192307692 15.776988636363633  36.69831730769231 15.818181818181817  L 12.856971153846153 18.33096590909091  C 13.054887820512821 19.154829545454547  13.153846153846153 19.635416666666664  13.153846153846153 19.772727272727273  C 13.153846153846153 19.99242424242424  12.971153846153847 20.431818181818183  12.60576923076923 21  L 33.61538461538461 21  C 34.01121794871795 21.09090909090909  34.35376602564103 21.221354166666664  34.64302884615385 21.482244318181817  C 34.932291666666664 21.74313446969697  35.07692307692308 22.052083333333336  35.07692307692308 22.40909090909091  C 35.07692307692308 22.76609848484848  34.932291666666664 23.075047348484848  34.64302884615385 23.3359375  C 34.35376602564103 23.596827651515152  34.01121794871795 23.727272727272727  33.61538461538461 23.727272727272727  L 10.23076923076923 23.727272727272727  C 9.834935897435898 23.727272727272727  9.492387820512821 23.596827651515152  9.203125 23.3359375  C 8.913862179487179 23.075047348484848  8.76923076923077 22.76609848484848  8.76923076923077 22.40909090909091  C 8.76923076923077 22.258049242424242  8.830128205128204 22.04178503787879  8.951923076923077 21.760298295454547  C 9.073717948717949 21.4788115530303  9.195512820512821 21.23165246212121  9.317307692307692 21.018821022727273  C 9.439102564102566 20.80598958333333  9.602764423076923 20.53136837121212  9.80829326923077 20.194957386363633  C 10.013822115384617 19.858546401515145  10.131810897435898 19.656013257575758  10.162259615384617 19.587357954545453  L 6.120192307692308 2.636363636363637  L 1.4615384615384617 2.636363636363637  C 1.0657051282051284 2.636363636363637  0.7231570512820513 2.505918560606058  0.4338942307692307 2.2450284090909083  C 0.14463141025641024 1.984138257575756  0 1.6751893939393931  0 1.318181818181817  C 0 0.9611742424242408  0.14463141025641024 0.6522253787878748  0.4338942307692307 0.39133522727272874  C 0.7231570512820513 0.13044507575757303  1.0657051282051284 0  1.4615384615384617 0  L 7.307692307692308 0  C 7.551282051282052 0  7.768229166666667 0.04462594696969502  7.958533653846153 0.1338778409090915  C 8.148838141025642 0.22312973484848475  8.297275641025642 0.32954545454545425  8.403846153846153 0.453125  C 8.510416666666668 0.5767045454545457  8.609375 0.7449100378787833  8.700721153846153 0.9577414772727287  C 8.792067307692308 1.1705729166666645  8.852964743589745 1.3490767045454541  8.883413461538462 1.4932528409090915  C 8.91386217948718 1.6374289772727288  8.955729166666668 1.8399621212121189  9.009014423076923 2.100852272727271  C 9.06229967948718 2.3617424242424203  9.096554487179487 2.54024621212121  9.111778846153847 3  L 36.53846153846154 3  C 36.934294871794876 2.636363636363637  37.27684294871795 2.76680871212121  37.56610576923077 3.027698863636363  Z " fill-rule="nonzero" fill="#ffffff" stroke="none" transform="matrix(1 0 0 1 1367 25 )" />
  </g>
</svg>