<?xml version="1.0" encoding="utf-8"?>
<svg version="1.1" xmlns:xlink="http://www.w3.org/1999/xlink" width="25px" height="25px" xmlns="http://www.w3.org/2000/svg">
  <g transform="matrix(1 0 0 1 -614 -308 )">
    <path d="M 19.368489583333336 10.416666666666666  C 19.368489583333336 10.698784722222221  19.265407986111114 10.942925347222221  19.059244791666664 11.149088541666666  L 12.190755208333332 18.017578125  C 11.98459201388889 18.223741319444443  11.74045138888889 18.326822916666668  11.458333333333332 18.326822916666668  C 11.176215277777779 18.326822916666668  10.932074652777779 18.223741319444443  10.725911458333332 18.017578125  L 5.940755208333334 13.232421875  C 5.734592013888889 13.026258680555552  5.631510416666666 12.782118055555552  5.631510416666666 12.5  C 5.631510416666666 12.217881944444445  5.734592013888889 11.973741319444445  5.940755208333334 11.767578125  L 7.600911458333333 10.107421875  C 7.807074652777779 9.901258680555555  8.051215277777779 9.798177083333334  8.333333333333332 9.798177083333334  C 8.61545138888889 9.798177083333334  8.85959201388889 9.901258680555555  9.065755208333332 10.107421875  L 11.458333333333332 12.5  L 15.934244791666666 8.024088541666666  C 16.140407986111114 7.817925347222221  16.384548611111114 7.71484375  16.666666666666664 7.71484375  C 16.948784722222225 7.71484375  17.192925347222225 7.817925347222221  17.399088541666664 8.024088541666666  L 19.059244791666664 9.684244791666666  C 19.265407986111114 9.89040798611111  19.368489583333336 10.13454861111111  19.368489583333336 10.416666666666666  Z M 20.166015625 16.943359375  C 20.958116319444446 15.587022569444443  21.354166666666664 14.105902777777779  21.354166666666664 12.5  C 21.354166666666664 10.894097222222221  20.958116319444446 9.412977430555555  20.166015625 8.056640625  C 19.373914930555557 6.700303819444442  18.299696180555557 5.626085069444442  16.943359375 4.833984375  C 15.587022569444445 4.041883680555555  14.105902777777779 3.6458333333333344  12.5 3.6458333333333344  C 10.894097222222223 3.6458333333333344  9.412977430555557 4.041883680555555  8.056640625 4.833984375  C 6.700303819444445 5.626085069444442  5.626085069444445 6.700303819444442  4.833984375 8.056640625  C 4.041883680555556 9.412977430555555  3.6458333333333335 10.894097222222221  3.6458333333333335 12.5  C 3.6458333333333335 14.105902777777779  4.041883680555556 15.587022569444443  4.833984375 16.943359375  C 5.626085069444445 18.299696180555554  6.700303819444445 19.373914930555554  8.056640625 20.166015625  C 9.412977430555557 20.958116319444446  10.894097222222223 21.354166666666664  12.5 21.354166666666664  C 14.105902777777779 21.354166666666664  15.587022569444445 20.958116319444446  16.943359375 20.166015625  C 18.299696180555557 19.373914930555554  19.373914930555557 18.299696180555554  20.166015625 16.943359375  Z M 23.323567708333336 6.2255859375  C 24.441189236111107 8.140733506944443  25 10.232204861111107  25 12.5  C 25 14.76779513888889  24.441189236111107 16.859266493055554  23.323567708333336 18.7744140625  C 22.205946180555557 20.689561631944446  20.689561631944446 22.205946180555554  18.7744140625 23.323567708333336  C 16.859266493055557 24.441189236111114  14.76779513888889 25  12.5 25  C 10.232204861111112 25  8.140733506944445 24.441189236111114  6.2255859375 23.323567708333336  C 4.310438368055556 22.205946180555554  2.7940538194444446 20.689561631944446  1.6764322916666667 18.7744140625  C 0.5588107638888888 16.859266493055554  0 14.76779513888889  0 12.5  C 0 10.232204861111107  0.5588107638888888 8.140733506944443  1.6764322916666667 6.2255859375  C 2.7940538194444446 4.310438368055555  4.310438368055556 2.794053819444442  6.2255859375 1.6764322916666656  C 8.140733506944445 0.5588107638888867  10.232204861111112 0  12.5 0  C 14.76779513888889 0  16.859266493055557 0.5588107638888867  18.7744140625 1.6764322916666656  C 20.689561631944446 2.794053819444442  22.205946180555557 4.310438368055555  23.323567708333336 6.2255859375  Z " fill-rule="nonzero" fill="#000000" stroke="none" transform="matrix(1 0 0 1 614 308 )" />
  </g>
</svg>