<?xml version="1.0" encoding="utf-8"?>
<svg version="1.1" xmlns:xlink="http://www.w3.org/1999/xlink" width="38px" height="30px" xmlns="http://www.w3.org/2000/svg">
  <g transform="matrix(1 0 0 1 -469 -497 )">
    <path d="M 19.791666666666668 17.363281250000004  L 29.258680555555557 13.828125  L 29.555555555555557 20.000000000000004  C 29.599537037037038 20.898437499999996  29.148726851851855 21.73177083333333  28.203125 22.5  C 27.257523148148152 23.268229166666664  25.965567129629633 23.876953125  24.327256944444443 24.326171875  C 22.68894675925926 24.775390625  20.913194444444443 25  19 25  C 17.086805555555557 25  15.311053240740744 24.775390625  13.672743055555555 24.326171875  C 12.03443287037037 23.876953125  10.742476851851853 23.268229166666664  9.796875 22.5  C 8.85127314814815 21.73177083333333  8.400462962962964 20.898437499999996  8.444444444444445 20.000000000000004  L 8.741319444444445 13.828125  L 18.208333333333336 17.363281250000004  C 18.45023148148148 17.454427083333336  18.71412037037037 17.499999999999996  19 17.499999999999996  C 19.285879629629633 17.499999999999996  19.549768518518523 17.454427083333336  19.791666666666668 17.363281250000004  Z M 37.63715277777778 6.894531250000001  C 37.87905092592593 6.998697916666664  38 7.200520833333331  38 7.5  C 38 7.799479166666665  37.87905092592593 8.001302083333329  37.63715277777778 8.105468749999998  L 19.164930555555557 14.980468750000002  C 19.120949074074076 14.993489583333332  19.065972222222225 15  19 15  C 18.93402777777778 15  18.879050925925927 14.993489583333332  18.835069444444443 14.980468750000002  L 8.081597222222221 10.95703125  C 7.608796296296298 11.399739583333329  7.21846064814815 12.125651041666664  6.910590277777778 13.134765625000002  C 6.602719907407408 14.143880208333332  6.415798611111111 15.30598958333333  6.349826388888889 16.621093749999996  C 7.042534722222222 17.089843749999996  7.388888888888889 17.799479166666664  7.388888888888889 18.75  C 7.388888888888889 19.648437500000004  7.070023148148149 20.34505208333333  6.432291666666667 20.839843749999996  L 7.388888888888889 29.296875  C 7.410879629629631 29.479166666666664  7.36689814814815 29.641927083333336  7.256944444444444 29.78515625  C 7.157986111111111 29.928385416666668  7.026041666666667 30  6.861111111111111 30  L 3.6944444444444446 30  C 3.529513888888889 30  3.3975694444444446 29.928385416666668  3.298611111111111 29.78515625  C 3.1886574074074074 29.641927083333336  3.144675925925926 29.479166666666664  3.1666666666666665 29.296875  L 4.123263888888889 20.839843749999996  C 3.4855324074074074 20.34505208333333  3.1666666666666665 19.648437500000004  3.1666666666666665 18.75  C 3.1666666666666665 17.799479166666664  3.5240162037037037 17.076822916666668  4.238715277777778 16.58203125  C 4.359664351851852 13.88671875  4.8984375 11.738281249999998  5.855034722222222 10.13671875  L 0.36284722222222227 8.105468749999998  C 0.12094907407407407 8.001302083333329  0 7.799479166666665  0 7.5  C 0 7.200520833333331  0.12094907407407407 6.998697916666664  0.36284722222222227 6.894531250000001  L 18.835069444444443 0.01953124999999889  C 18.879050925925927 0.006510416666665186  18.93402777777778 0  19 0  C 19.065972222222225 0  19.120949074074076 0.006510416666665186  19.164930555555557 0.01953124999999889  L 37.63715277777778 6.894531250000001  Z " fill-rule="nonzero" fill="#000000" stroke="none" transform="matrix(1 0 0 1 469 497 )" />
  </g>
</svg>