<?xml version="1.0" encoding="utf-8"?>
<svg version="1.1" xmlns:xlink="http://www.w3.org/1999/xlink" width="26px" height="34px" xmlns="http://www.w3.org/2000/svg">
  <g transform="matrix(1 0 0 1 -985 -493 )">
    <path d="M 26 6.7431930693069315  C 26 7.297235973597357  25.789351851851855 7.770627062706268  25.368055555555554 8.163366336633663  L 18.77777777777778 14.306930693069308  L 18.77777777777778 31.64356435643564  C 18.77777777777778 32.28877887788779  18.52951388888889 32.84282178217822  18.03298611111111 33.30569306930693  C 17.536458333333332 33.76856435643565  16.942129629629633 34  16.25 34  C 15.55787037037037 34  14.963541666666668 33.76856435643565  14.46701388888889 33.30569306930693  C 13.97048611111111 32.84282178217822  13.722222222222223 32.28877887788779  13.722222222222223 31.64356435643564  L 13.722222222222223 23.564356435643564  L 12.277777777777777 23.564356435643564  L 12.277777777777777 31.64356435643564  C 12.277777777777777 32.28877887788779  12.02951388888889 32.84282178217822  11.53298611111111 33.30569306930693  C 11.036458333333334 33.76856435643565  10.442129629629632 34  9.75 34  C 9.05787037037037 34  8.463541666666668 33.76856435643565  7.967013888888888 33.30569306930693  C 7.470486111111112 32.84282178217822  7.222222222222222 32.28877887788779  7.222222222222222 31.64356435643564  L 7.222222222222222 14.306930693069308  L 0.6319444444444444 8.163366336633663  C 0.21064814814814836 7.770627062706268  0 7.293729372937292  0 6.7326732673267315  C 0 6.171617161716171  0.21064814814814836 5.694719471947191  0.6319444444444444 5.301980198019803  C 1.0682870370370372 4.9092409240924075  1.5836226851851856 4.7128712871287135  2.177951388888889 4.7128712871287135  C 2.7722800925925926 4.7128712871287135  3.2800925925925926 4.9092409240924075  3.701388888888889 5.301980198019803  L 8.847222222222223 10.0990099009901  L 17.15277777777778 10.0990099009901  L 22.29861111111111 5.301980198019803  C 22.71990740740741 4.9092409240924075  23.231481481481485 4.7128712871287135  23.833333333333332 4.7128712871287135  C 24.435185185185187 4.7128712871287135  24.946759259259263 4.9092409240924075  25.368055555555554 5.301980198019803  C 25.789351851851855 5.708745874587457  26 6.1891501650165  26 6.7431930693069315  Z M 16.577256944444446 1.378094059405939  C 17.562789351851855 2.2968234323432304  18.055555555555557 3.4084158415841577  18.055555555555554 4.7128712871287135  C 18.055555555555557 6.0173267326732685  17.562789351851855 7.128919141914189  16.577256944444446 8.047648514851485  C 15.591724537037038 8.966377887788775  14.399305555555555 9.425742574257427  13 9.425742574257427  C 11.600694444444445 9.425742574257427  10.408275462962964 8.966377887788775  9.422743055555555 8.047648514851485  C 8.437210648148149 7.128919141914189  7.944444444444445 6.0173267326732685  7.944444444444445 4.7128712871287135  C 7.944444444444445 3.4084158415841577  8.437210648148149 2.2968234323432304  9.422743055555555 1.378094059405939  C 10.408275462962964 0.4593646864686438  11.600694444444445 0  13 0  C 14.399305555555555 0  15.591724537037038 0.4593646864686438  16.577256944444446 1.378094059405939  Z " fill-rule="nonzero" fill="#000000" stroke="none" transform="matrix(1 0 0 1 985 493 )" />
  </g>
</svg>