<?xml version="1.0" encoding="utf-8"?>
<svg version="1.1" xmlns:xlink="http://www.w3.org/1999/xlink" width="60px" height="60px" xmlns="http://www.w3.org/2000/svg">
  <g transform="matrix(1 0 0 1 -323 -691 )">
    <path d="M 55.9765625 14.94140625  C 58.65885416666666 19.53776041666666  60 24.557291666666657  60 30  C 60 35.442708333333336  58.65885416666666 40.46223958333333  55.9765625 45.05859375  C 53.29427083333334 49.654947916666664  49.654947916666664 53.294270833333336  45.05859375 55.9765625  C 40.46223958333334 58.65885416666667  35.442708333333336 60  30 60  C 24.557291666666668 60  19.537760416666668 58.65885416666667  14.94140625 55.9765625  C 10.345052083333334 53.294270833333336  6.705729166666668 49.654947916666664  4.0234375 45.05859375  C 1.341145833333333 40.46223958333333  0 35.442708333333336  0 30  C 0 24.557291666666657  1.341145833333333 19.53776041666666  4.0234375 14.94140625  C 6.705729166666668 10.345052083333332  10.345052083333334 6.705729166666661  14.94140625 4.023437499999998  C 19.537760416666668 1.3411458333333282  24.557291666666668 0  30 0  C 35.442708333333336 0  40.46223958333334 1.3411458333333282  45.05859375 4.023437499999998  C 49.654947916666664 6.705729166666661  53.29427083333334 10.345052083333332  55.9765625 14.94140625  Z " fill-rule="nonzero" fill="#330a6a" stroke="none" transform="matrix(1 0 0 1 323 691 )" />
  </g>
</svg>