<?xml version="1.0" encoding="utf-8"?>
<svg version="1.1" xmlns:xlink="http://www.w3.org/1999/xlink" width="18px" height="18px" viewBox="391 857  18 18" xmlns="http://www.w3.org/2000/svg">
  <path d="M 400 858  C 404.48 858  408 861.52  408 866  C 408 870.48  404.48 874  400 874  C 395.52 874  392 870.48  392 866  C 392 861.52  395.52 858  400 858  Z " fill-rule="nonzero" fill="#6200ee" stroke="none" fill-opacity="0" />
  <path d="M 400 858  C 404.48 858  408 861.52  408 866  C 408 870.48  404.48 874  400 874  C 395.52 874  392 870.48  392 866  C 392 861.52  395.52 858  400 858  Z " stroke-width="2" stroke="#1e98d7" fill="none" />
  <path d="M 400 870.5  C 397.48 870.5  395.5 868.52  395.5 866  C 395.5 863.48  397.48 861.5  400 861.5  C 402.52 861.5  404.5 863.48  404.5 866  C 404.5 868.52  402.52 870.5  400 870.5  " fill-rule="nonzero" fill="#1e98d7" stroke="none" />
</svg>