<?xml version="1.0" encoding="utf-8"?>
<svg version="1.1" xmlns:xlink="http://www.w3.org/1999/xlink" width="46px" height="50px" xmlns="http://www.w3.org/2000/svg">
  <g transform="matrix(1 0 0 1 -498 -476 )">
    <path d="M 36.26923076923077 26.25558035714286  C 36.26923076923077 26.497395833333332  36.18629807692308 26.711309523809522  36.02043269230769 26.89732142857143  L 21.86658653846154 41.183035714285715  C 21.682291666666668 41.35044642857143  21.470352564102566 41.434151785714285  21.230769230769234 41.434151785714285  C 20.991185897435898 41.434151785714285  20.779246794871796 41.35044642857143  20.594951923076923 41.183035714285715  L 12.633413461538462 33.14732142857143  C 12.467548076923077 32.961309523809526  12.384615384615383 32.74739583333333  12.384615384615383 32.50558035714286  C 12.384615384615383 32.26376488095239  12.467548076923077 32.059151785714285  12.633413461538462 31.89174107142857  L 13.905048076923077 30.60825892857143  C 14.070913461538462 30.440848214285715  14.273637820512823 30.35714285714286  14.513221153846155 30.35714285714286  C 14.752804487179489 30.35714285714286  14.96474358974359 30.440848214285715  15.149038461538462 30.60825892857143  L 21.230769230769234 36.746651785714285  L 33.50480769230769 24.35825892857143  C 33.68910256410257 24.190848214285715  33.90104166666667 24.107142857142854  34.140625 24.107142857142854  C 34.380208333333336 24.107142857142854  34.58293269230769 24.190848214285715  34.74879807692308 24.35825892857143  L 36.02043269230769 25.64174107142857  C 36.18629807692308 25.809151785714285  36.26923076923077 26.01376488095238  36.26923076923077 26.25558035714286  Z M 4 18  L 4 46  L 42 46  L 42 18  L 4 18  Z M 13.905048076923077 13.14174107142857  C 14.070913461538462 12.974330357142854  14.153846153846155 12.760416666666663  14.153846153846155 12.5  L 14.153846153846155 4.464285714285715  C 14.153846153846155 4.203869047619041  14.070913461538462 3.989955357142855  13.905048076923077 3.822544642857145  C 13.739182692307693 3.65513392857143  13.52724358974359 3.57142857142857  13.269230769230768 3.57142857142857  L 11.5 3.57142857142857  C 11.241987179487182 3.57142857142857  11.030048076923078 3.65513392857143  10.864182692307692 3.822544642857145  C 10.698317307692308 3.989955357142855  10.615384615384617 4.203869047619041  10.615384615384617 4.464285714285715  L 10.615384615384617 12.5  C 10.615384615384617 12.760416666666663  10.698317307692308 12.974330357142854  10.864182692307692 13.14174107142857  C 11.030048076923078 13.309151785714285  11.241987179487182 13.392857142857146  11.5 13.392857142857146  L 13.269230769230768 13.392857142857146  C 13.52724358974359 13.392857142857146  13.739182692307693 13.309151785714285  13.905048076923077 13.14174107142857  Z M 35.13581730769231 13.14174107142857  C 35.30168269230769 12.974330357142854  35.38461538461539 12.760416666666663  35.38461538461539 12.5  L 35.38461538461539 4.464285714285715  C 35.38461538461539 4.203869047619041  35.30168269230769 3.989955357142855  35.13581730769231 3.822544642857145  C 34.96995192307692 3.65513392857143  34.758012820512825 3.57142857142857  34.5 3.57142857142857  L 32.73076923076923 3.57142857142857  C 32.47275641025641 3.57142857142857  32.26081730769231 3.65513392857143  32.09495192307692 3.822544642857145  C 31.929086538461537 3.989955357142855  31.846153846153847 4.203869047619041  31.846153846153847 4.464285714285715  L 31.846153846153847 12.5  C 31.846153846153847 12.760416666666663  31.929086538461537 12.974330357142854  32.09495192307692 13.14174107142857  C 32.26081730769231 13.309151785714285  32.47275641025641 13.392857142857146  32.73076923076923 13.392857142857146  L 34.5 13.392857142857146  C 34.758012820512825 13.392857142857146  34.96995192307692 13.309151785714285  35.13581730769231 13.14174107142857  Z M 44.94951923076923 8.203125  C 45.649839743589745 8.909970238095239  46 9.747023809523808  46 10.714285714285715  L 46 46.42857142857143  C 46 47.395833333333336  45.649839743589745 48.232886904761905  44.94951923076923 48.939732142857146  C 44.24919871794872 49.64657738095238  43.419871794871796 50  42.46153846153847 50  L 3.5384615384615388 50  C 2.5801282051282057 50  1.7508012820512822 49.64657738095238  1.0504807692307692 48.939732142857146  C 0.3501602564102564 48.232886904761905  0 47.395833333333336  0 46.42857142857143  L 0 10.714285714285715  C 0 9.747023809523808  0.3501602564102564 8.909970238095239  1.0504807692307692 8.203125  C 1.7508012820512822 7.496279761904756  2.5801282051282057 7.142857142857145  3.5384615384615388 7.142857142857145  L 7.0769230769230775 7.142857142857145  L 7.0769230769230775 4.464285714285715  C 7.0769230769230775 3.236607142857145  7.5100160256410255 2.185639880952378  8.376201923076923 1.3113839285714302  C 9.242387820512823 0.4371279761904767  10.283653846153847 0  11.5 0  L 13.269230769230768 0  C 14.485576923076923 0  15.52684294871795 0.4371279761904767  16.393028846153847 1.3113839285714302  C 17.259214743589745 2.185639880952378  17.692307692307693 3.236607142857145  17.692307692307693 4.464285714285715  L 17.692307692307693 8  L 28.30769230769231 8  L 28.30769230769231 4.464285714285715  C 28.30769230769231 3.236607142857145  28.74078525641026 2.185639880952378  29.606971153846153 1.3113839285714302  C 30.473157051282058 0.4371279761904767  31.514423076923077 0  32.73076923076923 0  L 34.5 0  C 35.71634615384615 0  36.75761217948718 0.4371279761904767  37.62379807692308 1.3113839285714302  C 38.48998397435898 2.185639880952378  38.92307692307692 3.236607142857145  38.92307692307692 4.464285714285715  L 38.92307692307692 7.142857142857145  L 42.46153846153847 7.142857142857145  C 43.419871794871796 7.142857142857145  44.24919871794872 7.496279761904756  44.94951923076923 8.203125  Z " fill-rule="nonzero" fill="#000000" stroke="none" transform="matrix(1 0 0 1 498 476 )" />
  </g>
</svg>