<?xml version="1.0" encoding="utf-8"?>
<svg version="1.1" xmlns:xlink="http://www.w3.org/1999/xlink" width="18px" height="18px" viewBox="809 861  18 18" xmlns="http://www.w3.org/2000/svg">
  <path d="M 818 862  C 822.48 862  826 865.52  826 870  C 826 874.48  822.48 878  818 878  C 813.52 878  810 874.48  810 870  C 810 865.52  813.52 862  818 862  Z " fill-rule="nonzero" fill="#6200ee" stroke="none" fill-opacity="0" />
  <path d="M 818 862  C 822.48 862  826 865.52  826 870  C 826 874.48  822.48 878  818 878  C 813.52 878  810 874.48  810 870  C 810 865.52  813.52 862  818 862  Z " stroke-width="2" stroke="#1e98d7" fill="none" />
  <path d="M 818 874.5  C 815.48 874.5  813.5 872.52  813.5 870  C 813.5 867.48  815.48 865.5  818 865.5  C 820.52 865.5  822.5 867.48  822.5 870  C 822.5 872.52  820.52 874.5  818 874.5  " fill-rule="nonzero" fill="#1e98d7" stroke="none" />
</svg>