<?xml version="1.0" encoding="utf-8"?>
<svg version="1.1" xmlns:xlink="http://www.w3.org/1999/xlink" width="18px" height="18px" viewBox="809 821  18 18" xmlns="http://www.w3.org/2000/svg">
  <path d="M 818 822  C 822.48 822  826 825.52  826 830  C 826 834.48  822.48 838  818 838  C 813.52 838  810 834.48  810 830  C 810 825.52  813.52 822  818 822  Z " fill-rule="nonzero" fill="#6200ee" stroke="none" fill-opacity="0" />
  <path d="M 818 822  C 822.48 822  826 825.52  826 830  C 826 834.48  822.48 838  818 838  C 813.52 838  810 834.48  810 830  C 810 825.52  813.52 822  818 822  Z " stroke-width="2" stroke="#1e98d7" fill="none" />
  <path d="M 818 834.5  C 815.48 834.5  813.5 832.52  813.5 830  C 813.5 827.48  815.48 825.5  818 825.5  C 820.52 825.5  822.5 827.48  822.5 830  C 822.5 832.52  820.52 834.5  818 834.5  " fill-rule="nonzero" fill="#1e98d7" stroke="none" />
</svg>