<?xml version="1.0" encoding="utf-8"?>
<svg version="1.1" xmlns:xlink="http://www.w3.org/1999/xlink" width="18px" height="18px" viewBox="809 901  18 18" xmlns="http://www.w3.org/2000/svg">
  <path d="M 818 902  C 822.48 902  826 905.52  826 910  C 826 914.48  822.48 918  818 918  C 813.52 918  810 914.48  810 910  C 810 905.52  813.52 902  818 902  Z " fill-rule="nonzero" fill="#6200ee" stroke="none" fill-opacity="0" />
  <path d="M 818 902  C 822.48 902  826 905.52  826 910  C 826 914.48  822.48 918  818 918  C 813.52 918  810 914.48  810 910  C 810 905.52  813.52 902  818 902  Z " stroke-width="2" stroke="#1e98d7" fill="none" />
  <path d="M 818 914.5  C 815.48 914.5  813.5 912.52  813.5 910  C 813.5 907.48  815.48 905.5  818 905.5  C 820.52 905.5  822.5 907.48  822.5 910  C 822.5 912.52  820.52 914.5  818 914.5  " fill-rule="nonzero" fill="#1e98d7" stroke="none" />
</svg>