<?xml version="1.0" encoding="utf-8"?>
<svg version="1.1" xmlns:xlink="http://www.w3.org/1999/xlink" width="85px" height="42px" xmlns="http://www.w3.org/2000/svg">
  <g transform="matrix(1 0 0 1 -914 -370 )">
    <path d="M 916 380  A 8 8 0 0 1 924 372 L 989 372  A 8 8 0 0 1 997 380 L 997 402  A 8 8 0 0 1 989 410 L 924 410  A 8 8 0 0 1 916 402 L 916 380  Z " fill-rule="nonzero" fill="#601eaa" stroke="none" />
    <path d="M 915 380  A 9 9 0 0 1 924 371 L 989 371  A 9 9 0 0 1 998 380 L 998 402  A 9 9 0 0 1 989 411 L 924 411  A 9 9 0 0 1 915 402 L 915 380  Z " stroke-width="2" stroke="#330a6a" fill="none" stroke-opacity="0.996078431372549" />
  </g>
</svg>