<?xml version="1.0" encoding="utf-8"?>
<svg version="1.1" xmlns:xlink="http://www.w3.org/1999/xlink" width="27px" height="10px" xmlns="http://www.w3.org/2000/svg">
  <g transform="matrix(1 0 0 1 -753 -1120 )">
    <path d="M 26.84375 4.668400520156046  C 26.94791666666667 4.755093194625054  27.000000000000007 4.854789770264412  27 4.967490247074123  C 27.000000000000007 5.088859991330732  26.94791666666667 5.19289120069354  26.84375 5.279583875162549  L 20.84375 9.88296488946684  C 20.677083333333336 10.004334633723449  20.494791666666668 10.030342436064153  20.296875 9.960988296488946  C 20.098958333333336 9.88296488946684  20 9.757260511486779  20 9.583875162548765  L 20 6.671001300390117  L 0.5 6.671001300390117  C 0.3541666666666667 6.671001300390117  0.234375 6.631989596879064  0.140625 6.553966189856957  C 0.046875 6.47594278283485  0 6.376246207195491  0 6.254876462938881  L 0 3.758127438231469  C 0 3.636757693974859  0.046875 3.5370611183355005  0.140625 3.4590377113133943  C 0.234375 3.3810143042912877  0.3541666666666667 3.342002600780234  0.5 3.342002600780234  L 20 3.342002600780234  L 20 0.42912873862158696  C 20 0.24707412223667125  20.098958333333336 0.12136974425660974  20.296875 0.05201560468140465  C 20.494791666666668 -0.01733853489380266  20.677083333333336 0.004334633723449555  20.84375 0.11703511053316018  L 26.84375 4.668400520156046  Z " fill-rule="nonzero" fill="#ffffff" stroke="none" transform="matrix(1 0 0 1 753 1120 )" />
  </g>
</svg>